<svg width="190" height="190" viewBox="0 0 190 190" fill="none" xmlns="http://www.w3.org/2000/svg">
<path d="M109.63 18.9145L19.8495 76.0023C18.4311 76.9042 18.0124 78.7852 18.9143 80.2037L76.0021 169.984C76.9041 171.402 78.7851 171.821 80.2035 170.919L169.984 113.831C171.402 112.929 171.821 111.048 170.919 109.63L113.831 19.8498C112.929 18.4313 111.048 18.0126 109.63 18.9145Z" stroke="#FFAF00" stroke-width="2.37" stroke-miterlimit="10"/>
<path d="M103.318 51.4699L52.0074 84.0965C51.1911 84.6156 50.9501 85.6982 51.4692 86.5146L84.0958 137.825C84.6149 138.642 85.6975 138.883 86.5139 138.364L137.825 105.737C138.641 105.218 138.882 104.135 138.363 103.319L105.736 52.0081C105.217 51.1918 104.135 50.9508 103.318 51.4699Z" stroke="#FFAF00" stroke-width="2.37" stroke-miterlimit="10"/>
</svg>
