<svg width="157" height="158" viewBox="0 0 157 158" fill="none" xmlns="http://www.w3.org/2000/svg">
<path d="M141.635 85.599C157.395 101.359 157.395 126.921 141.635 142.681C125.875 158.441 100.314 158.441 84.5537 142.681" stroke="#FFAF00" stroke-width="6" stroke-miterlimit="10"/>
<path d="M142.181 86.1221C157.941 101.882 157.941 127.444 142.181 143.204C126.421 158.964 100.86 158.964 85.0996 143.204" stroke="#010101" stroke-width="2" stroke-linecap="round" stroke-linejoin="round"/>
<path d="M81.7331 120.394C60.4242 120.394 43.0723 103.042 43.0723 81.7331C43.0723 60.4242 60.4242 43.0723 81.7331 43.0723C103.042 43.0723 120.394 60.4242 120.394 81.7331C120.394 103.042 103.042 120.394 81.7331 120.394ZM81.7331 61.2656C70.4533 61.2656 61.2656 70.4533 61.2656 81.7331C61.2656 93.013 70.4533 102.201 81.7331 102.201C93.013 102.201 102.201 93.013 102.201 81.7331C102.201 70.4533 93.013 61.2656 81.7331 61.2656Z" fill="#010101"/>
<path d="M39.6609 78.3218C18.3519 78.3218 1 60.9699 1 39.661C1 18.352 18.3519 1.00012 39.6609 1.00012C60.9698 1.00012 78.3217 18.352 78.3217 39.661C78.3217 60.9699 60.9698 78.3218 39.6609 78.3218ZM39.6609 19.1935C28.381 19.1935 19.1933 28.3811 19.1933 39.661C19.1933 50.9409 28.381 60.1285 39.6609 60.1285C50.9407 60.1285 60.1284 50.9409 60.1284 39.661C60.1284 28.3811 50.9407 19.1935 39.6609 19.1935Z" stroke="#FFAF00" stroke-width="2" stroke-miterlimit="10"/>
</svg>
