<svg width="184" height="185" viewBox="0 0 184 185" fill="none" xmlns="http://www.w3.org/2000/svg">
<path d="M119.172 183.994C112.152 183.994 105.133 181.311 99.7966 175.975C89.0957 165.274 89.0957 147.896 99.7966 137.195C114.407 122.585 114.407 98.8145 99.7966 84.2042C85.1863 69.5939 61.416 69.5939 46.8058 84.2042C36.1049 94.9051 18.7266 94.9051 8.02567 84.2042C-2.67522 73.5033 -2.67522 56.1251 8.02567 45.4242C44.0092 9.44071 102.593 9.44071 138.576 45.4242C174.56 81.4077 174.56 139.992 138.576 175.975C133.212 181.34 126.192 184.022 119.201 184.022L119.172 183.994Z" fill="#FFAF00"/>
<path d="M135.608 167.557C128.588 167.557 121.568 164.875 116.232 159.538C105.531 148.838 105.531 131.459 116.232 120.758C130.842 106.148 130.842 82.3779 116.232 67.7676C101.622 53.1574 77.8516 53.1574 63.2413 67.7676C52.5404 78.4685 35.1621 78.4685 24.4612 67.7676C13.7603 57.0668 13.7603 39.6885 24.4612 28.9876C60.4447 -6.99588 119.029 -6.99588 155.012 28.9876C190.996 64.9711 190.996 123.555 155.012 159.538C149.647 164.903 142.628 167.586 135.608 167.586V167.557Z" stroke="#010101" stroke-width="2.56" stroke-miterlimit="10"/>
</svg>