<svg width="271" height="462" viewBox="0 0 271 462" fill="none" xmlns="http://www.w3.org/2000/svg">
<path d="M254.912 10.5584C252.491 12.9799 248.592 12.9799 246.17 10.5584C243.749 8.13698 243.749 4.23752 246.17 1.81607C248.592 -0.605371 252.491 -0.605371 254.912 1.81607C257.334 4.23752 257.334 8.13698 254.912 10.5584Z" fill="white"/>
<path d="M189.439 61.1258C186.035 61.1258 183.275 63.8853 183.275 67.2894C183.275 70.6935 186.035 73.4531 189.439 73.4531C192.843 73.4531 195.603 70.6935 195.603 67.2894C195.603 63.8853 192.843 61.1258 189.439 61.1258Z" fill="white"/>
<path d="M257.806 129.492C254.402 129.492 251.642 132.252 251.642 135.656C251.642 139.06 254.402 141.82 257.806 141.82C261.21 141.82 263.97 139.06 263.97 135.656C263.97 132.252 261.21 129.492 257.806 129.492Z" fill="white"/>
<path d="M132.707 132.732C130.286 135.153 126.386 135.153 123.965 132.732C121.544 130.31 121.544 126.411 123.965 123.989C126.386 121.568 130.286 121.568 132.707 123.989C135.129 126.411 135.129 130.31 132.707 132.732Z" fill="white"/>
<path d="M201.075 201.098C198.653 203.519 194.754 203.519 192.332 201.098C189.911 198.677 189.911 194.777 192.332 192.356C194.754 189.934 198.653 189.934 201.075 192.356C203.496 194.777 203.496 198.677 201.075 201.098Z" fill="white"/>
<path d="M269.442 269.496C267.02 271.917 263.121 271.917 260.699 269.496C258.278 267.074 258.278 263.175 260.699 260.754C263.121 258.332 267.02 258.332 269.442 260.754C271.863 263.175 271.863 267.074 269.442 269.496Z" fill="white"/>
<path d="M71.6058 193.834C69.1843 196.255 65.2849 196.255 62.8634 193.834C60.442 191.412 60.442 187.513 62.8634 185.091C65.2849 182.67 69.1843 182.67 71.6058 185.091C74.0272 187.513 74.0272 191.412 71.6058 193.834Z" fill="white"/>
<path d="M139.973 262.2C137.552 264.621 133.652 264.621 131.231 262.2C128.809 259.779 128.809 255.879 131.231 253.458C133.652 251.036 137.552 251.036 139.973 253.458C142.394 255.879 142.394 259.779 139.973 262.2Z" fill="white"/>
<path d="M208.371 330.566C205.95 332.988 202.051 332.988 199.629 330.566C197.208 328.145 197.208 324.246 199.629 321.824C202.051 319.403 205.95 319.403 208.371 321.824C210.793 324.246 210.793 328.145 208.371 330.566Z" fill="white"/>
<path d="M6.16348 244.401C2.75937 244.401 -0.000199435 247.16 -0.000199733 250.564C-0.00020003 253.968 2.75937 256.728 6.16347 256.728C9.56758 256.728 12.3271 253.968 12.3271 250.564C12.3271 247.16 9.56758 244.401 6.16348 244.401Z" fill="white"/>
<path d="M74.5307 312.767C71.1265 312.767 68.367 315.527 68.367 318.931C68.367 322.335 71.1265 325.094 74.5306 325.094C77.9348 325.094 80.6943 322.335 80.6943 318.931C80.6943 315.527 77.9348 312.767 74.5307 312.767Z" fill="white"/>
<path d="M147.267 391.669C144.845 394.09 140.946 394.09 138.525 391.669C136.103 389.247 136.103 385.348 138.525 382.926C140.946 380.505 144.845 380.505 147.267 382.926C149.688 385.348 149.688 389.247 147.267 391.669Z" fill="white"/>
<path d="M215.634 460.035C213.213 462.457 209.313 462.457 206.892 460.035C204.47 457.614 204.47 453.714 206.892 451.293C209.313 448.871 213.213 448.871 215.634 451.293C218.056 453.714 218.056 457.614 215.634 460.035Z" fill="white"/>
<path d="M84.9731 158.455C55.1003 158.455 30.8837 182.672 30.8837 212.545C30.8837 242.417 55.1003 266.634 84.9731 266.634C114.846 266.634 139.063 242.417 139.063 212.545C139.063 182.672 114.846 158.455 84.9731 158.455Z" fill="#FFAF00"/>
<path d="M104.407 177.89C74.5339 177.89 50.3173 202.106 50.3173 231.979C50.3173 261.852 74.5339 286.069 104.407 286.069C134.279 286.069 158.496 261.852 158.496 231.979C158.496 202.106 134.279 177.89 104.407 177.89Z" stroke="#010101" stroke-width="2" stroke-linecap="round" stroke-linejoin="round"/>
</svg>
