<svg width="512" height="512" viewBox="0 0 512 512" fill="none" xmlns="http://www.w3.org/2000/svg">
<path d="M444.633 292.118H427.389C423.988 292.118 421.231 289.361 421.231 285.96V268.716C421.231 265.315 423.988 262.558 427.389 262.558H444.633C448.034 262.558 450.791 265.315 450.791 268.716V285.96C450.792 289.361 448.034 292.118 444.633 292.118V292.118Z" fill="white"/>
<path d="M84.611 292.118H67.367C63.966 292.118 61.209 289.361 61.209 285.96V268.716C61.209 265.315 63.966 262.558 67.367 262.558H84.611C88.012 262.558 90.769 265.315 90.769 268.716V285.96C90.769 289.361 88.012 292.118 84.611 292.118V292.118Z" fill="white"/>
<path d="M264.622 97.3271H247.378C243.977 97.3271 241.22 94.5701 241.22 91.1691V73.9241C241.22 70.5231 243.977 67.7661 247.378 67.7661H264.622C268.023 67.7661 270.78 70.5231 270.78 73.9241V91.1681C270.78 94.5691 268.023 97.3271 264.622 97.3271Z" fill="white"/>
<path d="M456.698 96.4654C464.458 93.2485 468.142 84.3494 464.925 76.5885C461.708 68.8277 452.809 65.1441 445.048 68.361C437.287 71.5779 433.604 80.4771 436.821 88.2379C440.038 95.9987 448.937 99.6823 456.698 96.4654Z" fill="white"/>
<path d="M61.208 97.754C69.6071 97.754 76.416 90.9452 76.416 82.546C76.416 74.1469 69.6071 67.338 61.208 67.338C52.8089 67.338 46 74.1469 46 82.546C46 90.9452 52.8089 97.754 61.208 97.754Z" fill="white"/>
<path d="M382.659 312.84L356.783 305.472C354.249 295.142 350.17 285.413 344.801 276.56L357.893 253.044C359.003 251.045 358.655 248.544 357.037 246.926L339.352 229.241C337.734 227.623 335.233 227.275 333.234 228.385L309.718 241.477C300.865 236.108 291.137 232.029 280.806 229.495L273.438 203.619C272.809 201.413 270.797 199.895 268.504 199.895H243.497C241.204 199.895 239.191 201.413 238.563 203.619L231.195 229.495C220.865 232.029 211.136 236.108 202.283 241.477L178.767 228.385C176.768 227.275 174.267 227.623 172.649 229.241L154.964 246.926C153.346 248.544 152.998 251.045 154.108 253.044L167.2 276.56C161.831 285.413 157.752 295.141 155.218 305.472L129.342 312.84C127.136 313.469 125.618 315.481 125.618 317.775V342.782C125.618 345.075 127.136 347.088 129.342 347.716L155.218 355.084C157.752 365.414 161.831 375.143 167.2 383.996L154.108 407.512C152.998 409.511 153.346 412.012 154.964 413.63L172.649 431.315C174.267 432.933 176.768 433.281 178.767 432.171L202.283 419.079C211.136 424.448 220.864 428.527 231.195 431.061L238.563 456.937C239.192 459.143 241.204 460.661 243.497 460.661H268.504C270.797 460.661 272.81 459.143 273.438 456.937L280.806 431.061C291.136 428.527 300.865 424.448 309.718 419.079L333.234 432.171C335.233 433.281 337.734 432.933 339.352 431.315L357.037 413.63C358.655 412.012 359.003 409.511 357.893 407.512L344.801 383.996C350.17 375.143 354.249 365.415 356.783 355.084L382.659 347.716C384.865 347.087 386.383 345.075 386.383 342.782V317.775C386.383 315.481 384.865 313.468 382.659 312.84V312.84ZM256 383.903C226.386 383.903 202.375 359.892 202.375 330.278C202.375 300.664 226.386 276.653 256 276.653C285.614 276.653 309.625 300.664 309.625 330.278C309.625 359.892 285.614 383.903 256 383.903Z" fill="white"/>
<path opacity="0.75" d="M287.029 182.343V374.02C278.271 380.246 267.561 383.899 256 383.899C244.429 383.899 233.729 380.236 224.971 374V182.343C224.971 179.43 225.602 176.548 226.833 173.905L246.932 130.705C250.515 122.988 261.496 122.988 265.079 130.705L285.168 173.905C286.388 176.548 287.029 179.43 287.029 182.343V182.343Z" fill="#E5383B"/>
<path d="M256 188.098V383.899C244.429 383.899 233.729 380.236 224.971 374V188.098H256Z" fill="white"/>
<path d="M246.929 130.708L226.835 173.9C225.604 176.545 224.967 179.427 224.967 182.345V195.103C228.541 197.025 232.635 198.116 236.979 198.116C241.995 198.116 246.673 196.656 250.607 194.138C253.926 192.014 258.195 192.119 261.527 194.222C265.434 196.688 270.061 198.116 275.027 198.116C279.371 198.116 283.456 197.025 287.029 195.103V182.343C287.029 179.427 286.392 176.546 285.162 173.901L265.076 130.707C261.494 122.99 250.512 122.99 246.929 130.708V130.708Z" fill="white"/>
<path d="M246.929 130.708L235.938 154.352C241.414 158.827 248.391 161.519 255.998 161.519C263.616 161.519 270.603 158.826 276.068 154.342L265.077 130.708C261.494 122.99 250.512 122.99 246.929 130.708V130.708Z" fill="white"/>
<path d="M450.792 102.755C461.935 102.755 471 93.69 471 82.546C471 71.403 461.935 62.338 450.792 62.338C441.377 62.338 433.469 68.818 431.235 77.546H275.78V73.925C275.78 67.772 270.774 62.766 264.622 62.766H247.378C241.226 62.766 236.22 67.772 236.22 73.925V77.546H80.765C78.531 68.818 70.623 62.338 61.208 62.338C50.065 62.338 41 71.403 41 82.546C41 93.69 50.065 102.755 61.208 102.755C70.623 102.755 78.531 96.274 80.765 87.546H195.878C166.919 97.485 140.667 114.568 119.559 137.604C89.365 170.556 72.255 212.983 71.062 257.558H67.367C61.214 257.558 56.208 262.564 56.208 268.716V285.96C56.208 292.112 61.214 297.118 67.367 297.118H84.61C90.763 297.118 95.769 292.112 95.769 285.96V268.716C95.769 262.564 90.763 257.558 84.61 257.558H81.068C82.258 215.491 98.433 175.462 126.933 144.36C155.607 113.066 194.306 93.375 236.22 88.659V91.169C236.22 97.321 241.226 102.327 247.378 102.327H264.622C270.774 102.327 275.78 97.321 275.78 91.169V88.659C317.693 93.375 356.391 113.067 385.065 144.359C413.565 175.463 429.741 215.491 430.931 257.559H427.389C421.236 257.559 416.23 262.565 416.23 268.717V285.961C416.23 292.113 421.236 297.119 427.389 297.119H444.632C450.785 297.119 455.791 292.113 455.791 285.961V268.717C455.791 262.565 450.785 257.559 444.632 257.559H440.937C439.744 212.983 422.633 170.555 392.438 137.603C371.331 114.568 345.079 97.487 316.121 87.547H431.234C433.469 96.274 441.377 102.755 450.792 102.755V102.755ZM85.77 268.716V285.96C85.77 286.599 85.25 287.118 84.611 287.118H67.367C66.727 287.118 66.208 286.598 66.208 285.96V268.716C66.208 268.077 66.728 267.558 67.367 267.558H84.61C85.25 267.558 85.77 268.077 85.77 268.716V268.716ZM445.792 268.716V285.96C445.792 286.599 445.272 287.118 444.633 287.118H427.39C426.75 287.118 426.231 286.598 426.231 285.96V268.716C426.231 268.077 426.751 267.558 427.39 267.558H444.633C445.272 267.558 445.792 268.077 445.792 268.716ZM450.792 72.338C456.421 72.338 461 76.917 461 82.546C461 88.175 456.421 92.755 450.792 92.755C445.163 92.755 440.583 88.175 440.583 82.546C440.583 76.917 445.163 72.338 450.792 72.338ZM61.208 92.755C55.579 92.755 51 88.175 51 82.546C51 76.917 55.579 72.338 61.208 72.338C66.837 72.338 71.417 76.917 71.417 82.546C71.417 88.175 66.837 92.755 61.208 92.755ZM265.78 91.168C265.78 91.807 265.26 92.326 264.622 92.326H247.378C246.739 92.326 246.22 91.806 246.22 91.168V73.925C246.22 73.285 246.74 72.766 247.378 72.766H264.622C265.261 72.766 265.78 73.286 265.78 73.925V91.168Z" fill="#BA181B"/>
<path d="M384.027 308.031L360.902 301.446C358.51 292.721 355.042 284.35 350.561 276.492L362.264 255.47C364.446 251.538 363.75 246.572 360.572 243.391L342.886 225.706C339.706 222.527 334.739 221.829 330.801 224.017L309.784 235.717C304.127 232.493 298.174 229.784 292.032 227.628V182.347C292.032 178.727 291.225 175.079 289.7 171.797L269.612 128.597C267.121 123.242 261.906 119.915 256 119.915C250.095 119.916 244.88 123.242 242.391 128.597L222.302 171.798C220.777 175.079 219.97 178.727 219.97 182.347V227.625C213.825 229.781 207.873 232.492 202.214 235.718L181.192 224.014C177.26 221.832 172.291 222.527 169.113 225.707L151.426 243.393C148.248 246.573 147.553 251.539 149.738 255.478L161.437 276.494C156.957 284.352 153.488 292.723 151.096 301.448L127.972 308.032C123.641 309.264 120.616 313.271 120.616 317.776V342.783C120.616 347.287 123.641 351.294 127.971 352.525L151.096 359.111C153.488 367.836 156.956 376.206 161.437 384.064L149.734 405.086C147.552 409.018 148.248 413.984 151.426 417.165L169.112 434.851C172.292 438.03 177.259 438.73 181.197 436.539L202.214 424.84C210.072 429.32 218.443 432.789 227.168 435.181L233.752 458.305C234.984 462.636 238.991 465.661 243.496 465.661H268.502C273.007 465.661 277.014 462.636 278.245 458.306L284.83 435.181C293.555 432.789 301.926 429.321 309.784 424.84L330.805 436.542C334.737 438.728 339.706 438.031 342.886 434.851L360.573 417.164C363.751 413.984 364.446 409.018 362.261 405.08L350.562 384.063C355.042 376.205 358.511 367.834 360.903 359.11L384.027 352.525C388.358 351.293 391.383 347.286 391.383 342.782V317.775C391.383 313.27 388.357 309.263 384.027 308.031V308.031ZM255.998 216.999C253.236 216.999 250.998 219.237 250.998 221.999V378.646C226.528 376.134 207.375 355.4 207.375 330.277C207.375 318.176 211.975 306.54 219.971 297.671V346.459C219.971 349.221 222.209 351.459 224.971 351.459C227.733 351.459 229.971 349.221 229.971 346.459V202.288C232.26 202.829 234.613 203.116 236.979 203.116C242.785 203.116 248.429 201.468 253.302 198.349C254.929 197.306 257.112 197.348 258.859 198.451C263.694 201.503 269.285 203.116 275.028 203.116C277.392 203.116 279.745 202.829 282.034 202.287V370.563C282.034 370.805 282.072 371.036 282.105 371.268C275.883 375.244 268.709 377.855 260.999 378.646V221.999C260.998 219.237 258.76 216.999 255.998 216.999V216.999ZM292.033 297.622C300.113 306.49 304.625 317.993 304.625 330.277C304.625 342.815 299.854 354.258 292.033 362.89V297.622ZM251.46 132.813C252.71 130.125 255.252 129.916 256.002 129.916C256.752 129.916 259.295 130.125 260.545 132.814L269.772 152.657C265.636 155.154 260.868 156.52 255.998 156.52C251.062 156.52 246.373 155.185 242.228 152.667L251.46 132.813ZM231.371 176.014L237.988 161.783C243.462 164.864 249.678 166.52 255.998 166.52C262.33 166.52 268.548 164.864 274.015 161.782L280.633 176.014C281.549 177.984 282.033 180.174 282.033 182.347V191.876C279.805 192.695 277.46 193.116 275.027 193.116C271.176 193.116 267.431 192.037 264.195 189.994C259.182 186.83 252.79 186.805 247.911 189.927C244.651 192.014 240.87 193.116 236.978 193.116C234.58 193.116 232.203 192.685 229.97 191.871V182.346C229.971 180.174 230.455 177.983 231.371 176.014V176.014ZM381.383 342.781C381.383 342.841 381.347 342.889 381.289 342.906L355.413 350.275C353.685 350.767 352.354 352.148 351.926 353.892C349.545 363.6 345.709 372.856 340.526 381.402C339.594 382.938 339.558 384.857 340.433 386.426L353.521 409.936C353.548 409.986 353.54 410.055 353.502 410.093L335.816 427.779C335.776 427.817 335.709 427.825 335.666 427.801L312.15 414.709C310.578 413.834 308.662 413.869 307.125 414.802C298.578 419.986 289.322 423.822 279.614 426.202C277.87 426.631 276.489 427.962 275.997 429.689L268.628 455.566C268.612 455.623 268.564 455.659 268.503 455.659H243.497C243.436 455.659 243.388 455.623 243.371 455.565L236.003 429.689C235.511 427.961 234.13 426.63 232.386 426.202C222.678 423.821 213.422 419.985 204.875 414.802C203.339 413.87 201.422 413.834 199.85 414.709L176.339 427.799C176.288 427.826 176.224 427.818 176.184 427.779L158.499 410.094C158.461 410.055 158.452 409.986 158.476 409.942L171.568 386.426C172.443 384.857 172.407 382.938 171.475 381.402C166.291 372.856 162.455 363.6 160.075 353.892C159.646 352.148 158.315 350.767 156.588 350.275L130.711 342.905C130.654 342.889 130.618 342.841 130.618 342.781V317.774C130.618 317.713 130.654 317.665 130.712 317.648L156.588 310.28C158.316 309.788 159.647 308.407 160.075 306.663C162.456 296.955 166.292 287.699 171.475 279.152C172.407 277.616 172.443 275.697 171.568 274.128L158.48 250.618C158.453 250.568 158.461 250.499 158.499 250.461L176.185 232.776C176.224 232.739 176.293 232.729 176.335 232.753L199.851 245.845C201.423 246.72 203.34 246.683 204.876 245.752C209.681 242.837 214.739 240.339 219.972 238.288V284.06C205.806 295.129 197.376 312.276 197.376 330.277C197.376 362.603 223.675 388.902 256.001 388.902C288.327 388.902 314.626 362.603 314.626 330.277C314.626 312.051 306.394 295.251 292.034 284.052V238.289C297.264 240.339 302.323 242.838 307.126 245.752C308.662 246.683 310.579 246.72 312.151 245.845L335.66 232.757C335.71 232.73 335.779 232.736 335.817 232.778L353.502 250.461C353.54 250.5 353.549 250.569 353.525 250.613L340.433 274.129C339.558 275.698 339.594 277.617 340.526 279.153C345.71 287.7 349.546 296.956 351.926 306.664C352.355 308.408 353.686 309.789 355.413 310.281L381.29 317.65C381.347 317.666 381.383 317.714 381.383 317.775V342.781Z" fill="#BA181B"/>
</svg>
