<svg width="512" height="512" viewBox="0 0 512 512" fill="none" xmlns="http://www.w3.org/2000/svg">
<path d="M473.611 115.209V399.404C473.611 407.682 466.892 414.401 458.614 414.401H88.686C80.408 414.401 73.689 407.682 73.689 399.404V115.209C73.689 106.931 80.408 100.212 88.686 100.212H458.614C466.892 100.212 473.611 106.931 473.611 115.209Z" fill="white"/>
<path opacity="0.75" d="M340.665 375.151H178.464C176.807 375.151 175.465 373.808 175.465 372.152V216.55C175.465 214.893 176.808 213.551 178.464 213.551H340.666C342.323 213.551 343.665 214.894 343.665 216.55V372.151C343.665 373.808 342.322 375.151 340.665 375.151V375.151Z" fill="#E5383B"/>
<path d="M473.611 195.528V115.21C473.611 106.932 466.892 100.213 458.614 100.213H88.686C80.408 100.213 73.689 106.932 73.689 115.21V195.528H473.611Z" fill="white"/>
<path d="M473.611 148.374V115.209C473.611 106.926 466.897 100.212 458.614 100.212H88.686C80.403 100.212 73.689 106.926 73.689 115.209V148.374H473.611Z" fill="white"/>
<path d="M444.855 380.385H368.87C367.213 380.385 365.871 379.042 365.871 377.386V189.422C365.871 187.765 367.214 186.423 368.87 186.423H444.855C446.512 186.423 447.854 187.766 447.854 189.422V377.386C447.855 379.042 446.512 380.385 444.855 380.385Z" fill="white"/>
<path opacity="0.75" d="M447.855 208.907H365.871V189.421C365.871 187.764 367.214 186.422 368.87 186.422H444.855C446.512 186.422 447.854 187.765 447.854 189.421V208.907H447.855Z" fill="#E5383B"/>
<path opacity="0.75" d="M365.871 267.478H447.855V289.963H365.871V267.478Z" fill="#E5383B"/>
<path d="M444.855 380.385H368.87C367.213 380.385 365.871 379.042 365.871 377.386V189.422C365.871 187.765 367.214 186.423 368.87 186.423H444.855C446.512 186.423 447.854 187.766 447.854 189.422V377.386C447.855 379.042 446.512 380.385 444.855 380.385Z" stroke="#BA181B" stroke-width="10" stroke-miterlimit="10" stroke-linecap="round" stroke-linejoin="round"/>
<path d="M398.948 310.661H378.619C376.962 310.661 375.62 309.318 375.62 307.662V305.162C375.62 303.505 376.963 302.163 378.619 302.163H398.948C400.605 302.163 401.947 303.506 401.947 305.162V307.662C401.947 309.318 400.604 310.661 398.948 310.661Z" fill="#BA181B"/>
<path d="M435.107 310.661H414.778C413.121 310.661 411.779 309.318 411.779 307.662V305.162C411.779 303.505 413.122 302.163 414.778 302.163H435.107C436.764 302.163 438.106 303.506 438.106 305.162V307.662C438.107 309.318 436.764 310.661 435.107 310.661Z" fill="#BA181B"/>
<path d="M398.948 324.908H378.619C376.962 324.908 375.62 323.565 375.62 321.909V319.409C375.62 317.752 376.963 316.41 378.619 316.41H398.948C400.605 316.41 401.947 317.753 401.947 319.409V321.909C401.947 323.565 400.604 324.908 398.948 324.908Z" fill="#BA181B"/>
<path d="M435.107 324.908H414.778C413.121 324.908 411.779 323.565 411.779 321.909V319.409C411.779 317.752 413.122 316.41 414.778 316.41H435.107C436.764 316.41 438.106 317.753 438.106 319.409V321.909C438.107 323.565 436.764 324.908 435.107 324.908Z" fill="#BA181B"/>
<path d="M398.948 339.155H378.619C376.962 339.155 375.62 337.812 375.62 336.156V333.656C375.62 331.999 376.963 330.657 378.619 330.657H398.948C400.605 330.657 401.947 332 401.947 333.656V336.156C401.947 337.812 400.604 339.155 398.948 339.155Z" fill="#BA181B"/>
<path d="M435.107 339.155H414.778C413.121 339.155 411.779 337.812 411.779 336.156V333.656C411.779 331.999 413.122 330.657 414.778 330.657H435.107C436.764 330.657 438.106 332 438.106 333.656V336.156C438.107 337.812 436.764 339.155 435.107 339.155Z" fill="#BA181B"/>
<path d="M157.754 267.847V189.422C157.754 187.765 156.411 186.423 154.755 186.423H114.763C113.106 186.423 111.764 187.766 111.764 189.422V267.847C111.764 269.504 113.107 270.846 114.763 270.846H154.755C156.412 270.846 157.754 269.503 157.754 267.847Z" fill="white"/>
<path opacity="0.75" d="M157.754 208.907H111.763V189.421C111.763 187.764 113.106 186.422 114.762 186.422H154.754C156.411 186.422 157.753 187.765 157.753 189.421V208.907H157.754Z" fill="#E5383B"/>
<path d="M157.754 267.847V189.422C157.754 187.765 156.411 186.423 154.755 186.423H114.763C113.106 186.423 111.764 187.766 111.764 189.422V267.847C111.764 269.504 113.107 270.846 114.763 270.846H154.755C156.412 270.846 157.754 269.503 157.754 267.847Z" stroke="#BA181B" stroke-width="10" stroke-miterlimit="10" stroke-linecap="round" stroke-linejoin="round"/>
<path d="M138.425 449H85.102C79.58 449 75.104 444.524 75.104 439.002V417.006H148.423V439.002C148.423 444.524 143.947 449 138.425 449Z" fill="white"/>
<path d="M84.905 408.675H138.621L178.785 371.185C185.515 364.903 187.086 354.837 182.59 346.802L118.101 231.566C115.328 226.611 108.197 226.611 105.424 231.566L40.936 346.802C36.44 354.836 38.011 364.902 44.741 371.185L84.905 408.675Z" fill="white"/>
<path opacity="0.75" d="M111.763 369.651C122.789 369.651 131.728 360.712 131.728 349.686C131.728 338.66 122.789 329.721 111.763 329.721C100.737 329.721 91.798 338.66 91.798 349.686C91.798 360.712 100.737 369.651 111.763 369.651Z" fill="#E5383B"/>
<path d="M152.528 425.201H70.999C65.477 425.201 61.001 420.725 61.001 415.203V409.441C61.001 403.919 65.477 399.443 70.999 399.443H152.528C158.05 399.443 162.526 403.919 162.526 409.441V415.203C162.526 420.724 158.05 425.201 152.528 425.201Z" fill="white"/>
<path d="M116.763 124.365V124.22C116.763 121.458 114.524 119.22 111.763 119.22C109.002 119.22 106.763 121.458 106.763 124.22V124.365C106.763 127.127 109.002 129.365 111.763 129.365C114.524 129.365 116.763 127.127 116.763 124.365V124.365Z" fill="#BA181B"/>
<path d="M136.084 124.365V124.22C136.084 121.458 133.845 119.22 131.084 119.22C128.323 119.22 126.084 121.458 126.084 124.22V124.365C126.084 127.127 128.323 129.365 131.084 129.365C133.845 129.365 136.084 127.127 136.084 124.365V124.365Z" fill="#BA181B"/>
<path d="M155.405 124.365V124.22C155.405 121.458 153.166 119.22 150.405 119.22C147.644 119.22 145.405 121.458 145.405 124.22V124.365C145.405 127.127 147.644 129.365 150.405 129.365C153.166 129.365 155.405 127.127 155.405 124.365V124.365Z" fill="#BA181B"/>
<path d="M458.614 95.212H88.686C77.66 95.212 68.689 104.183 68.689 115.209V120.839C68.689 123.601 70.928 125.839 73.689 125.839C76.45 125.839 78.689 123.601 78.689 120.839V115.209C78.689 109.696 83.174 105.212 88.686 105.212H458.614C464.127 105.212 468.611 109.696 468.611 115.209V143.374H73.689C70.928 143.374 68.689 145.612 68.689 148.374V286.972L36.573 344.361C30.937 354.431 32.893 366.965 41.33 374.84L64.1309 396.122C59.3089 398.62 56 403.647 56 409.44V415.202C56 423.17 62.251 429.688 70.104 430.155V439.002C70.104 447.272 76.832 454 85.102 454H138.425C146.695 454 153.423 447.271 153.423 439.002V430.155C161.276 429.688 167.527 423.17 167.527 415.202V409.44C167.527 403.646 164.218 398.619 159.397 396.122L182.198 374.839C190.634 366.964 192.59 354.43 186.954 344.36L122.465 229.124C120.266 225.194 116.266 222.849 111.763 222.849C107.26 222.849 103.26 225.195 101.061 229.124L78.688 269.102V153.374H468.61V399.401C468.61 404.914 464.126 409.398 458.613 409.398H191.416C188.655 409.398 186.416 411.636 186.416 414.398C186.416 417.16 188.655 419.398 191.416 419.398H458.614C469.64 419.398 478.611 410.427 478.611 399.401V115.209C478.611 104.183 469.641 95.212 458.614 95.212V95.212ZM138.425 444H85.102C82.346 444 80.104 441.758 80.104 439.002V430.2H143.423V439.002C143.423 441.758 141.181 444 138.425 444ZM157.526 415.202C157.526 417.958 155.284 420.2 152.527 420.2H70.999C68.243 420.2 66.001 417.958 66.001 415.202V409.44C66.001 406.684 68.243 404.442 70.999 404.442H152.528C155.284 404.442 157.527 406.684 157.527 409.44L157.526 415.202ZM111.763 334.721C120.014 334.721 126.728 341.435 126.728 349.687C126.728 357.939 120.015 364.652 111.763 364.652C103.511 364.652 96.798 357.939 96.798 349.687C96.798 341.435 103.512 334.721 111.763 334.721ZM106.763 239.413V325.224C95.385 327.546 86.798 337.632 86.798 349.686C86.798 363.452 97.997 374.651 111.763 374.651C125.529 374.651 136.728 363.452 136.728 349.686C136.728 337.632 128.141 327.546 116.763 325.224V239.412L178.227 349.244C181.608 355.286 180.435 362.806 175.373 367.53L146.824 394.177C146.736 394.259 146.673 394.355 146.592 394.442H76.934C76.854 394.356 76.79 394.259 76.702 394.177L48.153 367.53C43.091 362.805 41.918 355.286 45.299 349.244L106.763 239.413Z" fill="#BA181B"/>
<path d="M327.468 334.156V244.518C327.468 239.004 322.983 234.519 317.469 234.519H206.157C200.643 234.519 196.158 239.004 196.158 244.518V334.156C196.158 339.67 200.643 344.155 206.157 344.155H317.469C322.982 344.155 327.468 339.67 327.468 334.156ZM292.98 334.156V280.25H317.47L317.474 334.155L292.98 334.156ZM317.468 244.519L317.47 270.25H206.157V244.52L317.468 244.519ZM206.157 280.25H282.98V334.156L206.157 334.157V280.25Z" fill="#BA181B"/>
<path d="M115.795 177.978H135.139C137.366 177.978 139.171 176.173 139.171 173.946C139.171 171.719 137.366 169.914 135.139 169.914H115.795C113.568 169.914 111.763 171.719 111.763 173.946C111.763 176.173 113.568 177.978 115.795 177.978V177.978Z" fill="#BA181B"/>
<path d="M161.786 177.978H181.13C183.357 177.978 185.162 176.173 185.162 173.946C185.162 171.719 183.357 169.914 181.13 169.914H161.786C159.559 169.914 157.754 171.719 157.754 173.946C157.754 176.173 159.559 177.978 161.786 177.978Z" fill="#BA181B"/>
<path d="M207.777 177.978H227.121C229.348 177.978 231.153 176.173 231.153 173.946C231.153 171.719 229.348 169.914 227.121 169.914H207.777C205.55 169.914 203.745 171.719 203.745 173.946C203.745 176.173 205.55 177.978 207.777 177.978Z" fill="#BA181B"/>
<path d="M253.768 177.978H273.112C275.339 177.978 277.144 176.173 277.144 173.946C277.144 171.719 275.339 169.914 273.112 169.914H253.768C251.541 169.914 249.736 171.719 249.736 173.946C249.736 176.173 251.541 177.978 253.768 177.978V177.978Z" fill="#BA181B"/>
<path d="M299.759 177.978H319.103C321.33 177.978 323.135 176.173 323.135 173.946C323.135 171.719 321.33 169.914 319.103 169.914H299.759C297.532 169.914 295.727 171.719 295.727 173.946C295.727 176.173 297.533 177.978 299.759 177.978Z" fill="#BA181B"/>
</svg>
