<svg width="512" height="512" viewBox="0 0 512 512" fill="none" xmlns="http://www.w3.org/2000/svg">
<path d="M455.037 98.1438H360.334V441.859H455.037C463.304 441.859 470.013 435.149 470.013 426.883V113.121C470.013 104.853 463.303 98.1438 455.037 98.1438Z" fill="white"/>
<path opacity="0.75" d="M432.222 325.914H360.334V441.858H432.222C433.876 441.858 435.217 440.517 435.217 438.863V328.909C435.217 327.255 433.876 325.914 432.222 325.914Z" fill="#E5383B"/>
<path opacity="0.75" d="M432.222 183.778H360.334V299.723H432.222C433.876 299.723 435.217 298.382 435.217 296.727V186.774C435.217 185.119 433.876 183.778 432.222 183.778Z" fill="#E5383B"/>
<path d="M455.037 98.1438H360.334V146.24H470.013V113.12C470.013 104.849 463.307 98.1438 455.037 98.1438V98.1438Z" fill="white"/>
<path d="M149.661 98.1438H57.9523C49.685 98.1438 42.9761 104.854 42.9761 113.12V426.882C42.9761 435.149 49.686 441.858 57.9523 441.858H149.66V98.1438H149.661Z" fill="white"/>
<path opacity="0.75" d="M149.662 399.538V267.743H72.7811C71.1269 267.743 69.7859 269.084 69.7859 270.738V396.542C69.7859 398.197 71.1269 399.538 72.7811 399.538H149.662Z" fill="#E5383B"/>
<path opacity="0.75" d="M149.662 241.92V199.986H72.7811C71.1269 199.986 69.7859 201.327 69.7859 202.981V238.925C69.7859 240.579 71.1269 241.92 72.7811 241.92H149.662Z" fill="#E5383B"/>
<path d="M149.661 98.1438H57.9532C49.6819 98.1438 42.9771 104.849 42.9771 113.12V146.24H149.661V98.1438Z" fill="white"/>
<path d="M396.278 83.1667V456.835C396.278 465.103 389.568 471.811 381.302 471.811H131.69C123.423 471.811 116.714 465.102 116.714 456.835V83.1667C116.714 74.8994 123.424 68.1906 131.69 68.1906H381.302C389.568 68.1906 396.278 74.8994 396.278 83.1667Z" fill="white"/>
<path opacity="0.75" d="M396.277 146.343V251.48C384.716 256.292 372.025 258.938 358.726 258.938C304.57 258.938 260.669 215.026 260.669 160.87C260.669 155.939 261.038 151.086 261.737 146.343H396.277Z" fill="#E5383B"/>
<rect x="117.807" y="142.024" width="278.372" height="8.97973" fill="#BA181B"/>
<rect x="116.81" y="276.72" width="278.372" height="8.97973" fill="#BA181B"/>
<path d="M396.278 116.287V83.1667C396.278 74.8954 389.573 68.1906 381.302 68.1906H131.69C123.419 68.1906 116.714 74.8954 116.714 83.1667V116.287H396.278Z" fill="white"/>
<path d="M455.037 93.1552H401.266V83.1667C401.266 72.1586 392.31 63.2018 381.302 63.2018H131.69C120.681 63.2018 111.725 72.1586 111.725 83.1667V93.1552H57.9534C46.9442 93.1552 37.9874 102.111 37.9874 113.12V426.879C37.9874 437.888 46.9442 446.845 57.9534 446.845H89.2338C91.9885 446.845 94.2225 444.612 94.2225 441.856C94.2225 439.1 91.9885 436.867 89.2338 436.867H57.9534C52.4458 436.867 47.9649 432.386 47.9649 426.879V151.229H111.723V456.832C111.723 467.841 120.68 476.798 131.688 476.798H381.299C392.309 476.798 401.264 467.841 401.264 456.832V446.845H455.035C466.044 446.845 475 437.888 475 426.879V113.12C475.002 102.111 466.045 93.1552 455.037 93.1552V93.1552ZM455.037 103.133C460.545 103.133 465.025 107.614 465.025 113.121V141.252H401.266V103.133H455.037ZM131.69 73.1793H381.302C386.809 73.1793 391.289 77.6591 391.289 83.1667V111.298H121.701V83.1667C121.701 77.6591 126.182 73.1793 131.69 73.1793V73.1793ZM47.9649 141.252V113.121C47.9649 107.614 52.4458 103.133 57.9534 103.133H111.724V141.252H47.9649ZM455.037 436.867H401.266V173.718C401.266 170.963 399.032 168.73 396.278 168.73C393.523 168.73 391.289 170.963 391.289 173.718V456.832C391.289 462.34 386.808 466.821 381.302 466.821H131.69C126.182 466.821 121.702 462.34 121.702 456.832V121.276H391.289V146.24C391.289 148.996 393.523 151.229 396.278 151.229H465.025V426.879C465.025 432.386 460.544 436.867 455.037 436.867Z" fill="#BA181B"/>
<path d="M80.9991 117.131C78.2443 117.131 76.0104 119.364 76.0104 122.12V122.264C76.0104 125.02 78.2443 127.253 80.9991 127.253C83.7539 127.253 85.9879 125.02 85.9879 122.264V122.12C85.9879 119.364 83.7549 117.131 80.9991 117.131Z" fill="#BA181B"/>
<path d="M100.295 117.131C97.54 117.131 95.306 119.364 95.306 122.12V122.264C95.306 125.02 97.54 127.253 100.295 127.253C103.05 127.253 105.284 125.02 105.284 122.264V122.12C105.284 119.364 103.05 117.131 100.295 117.131Z" fill="#BA181B"/>
<path d="M154.736 97.2998C157.491 97.2998 159.725 95.0668 159.725 92.311V92.1654C159.725 89.4096 157.491 87.1766 154.736 87.1766C151.981 87.1766 149.747 89.4096 149.747 92.1654V92.311C149.747 95.0668 151.981 97.2998 154.736 97.2998Z" fill="#BA181B"/>
<path d="M174.03 97.2998C176.785 97.2998 179.019 95.0668 179.019 92.311V92.1654C179.019 89.4096 176.785 87.1766 174.03 87.1766C171.275 87.1766 169.042 89.4096 169.042 92.1654V92.311C169.042 95.0668 171.275 97.2998 174.03 97.2998Z" fill="#BA181B"/>
<path d="M193.326 97.2998C196.081 97.2998 198.315 95.0668 198.315 92.311V92.1654C198.315 89.4096 196.081 87.1766 193.326 87.1766C190.571 87.1766 188.337 89.4096 188.337 92.1654V92.311C188.337 95.0668 190.57 97.2998 193.326 97.2998Z" fill="#BA181B"/>
<path d="M362.253 198.62C360.305 196.673 357.147 196.674 355.198 198.619C353.25 200.568 353.25 203.727 355.198 205.674L357.505 207.982L355.198 210.29C353.25 212.238 353.25 215.397 355.198 217.345C356.172 218.319 357.448 218.806 358.725 218.806C360.003 218.806 361.28 218.319 362.253 217.344L368.087 211.509C370.036 209.562 370.036 206.403 368.087 204.455L362.253 198.62Z" fill="#BA181B"/>
<path d="M157.792 198.619C155.845 196.673 152.685 196.672 150.737 198.62L144.903 204.455C142.955 206.403 142.955 209.561 144.903 211.509L150.737 217.344C151.712 218.319 152.988 218.806 154.265 218.806C155.541 218.806 156.818 218.319 157.792 217.345C159.741 215.396 159.741 212.237 157.792 210.29L155.485 207.982L157.792 205.674C159.741 203.727 159.741 200.568 157.792 198.619V198.619Z" fill="#BA181B"/>
<path d="M239.611 268.469C242.694 268.469 245.192 265.971 245.192 262.888C245.192 259.806 242.694 257.307 239.611 257.307C236.529 257.307 234.03 259.806 234.03 262.888C234.03 265.971 236.529 268.469 239.611 268.469Z" fill="#BA181B"/>
<path d="M256.495 268.469C259.578 268.469 262.077 265.971 262.077 262.888C262.077 259.806 259.578 257.307 256.495 257.307C253.413 257.307 250.914 259.806 250.914 262.888C250.914 265.971 253.413 268.469 256.495 268.469Z" fill="#BA181B"/>
<path d="M273.379 268.469C276.462 268.469 278.96 265.971 278.96 262.888C278.96 259.806 276.462 257.307 273.379 257.307C270.296 257.307 267.798 259.806 267.798 262.888C267.798 265.971 270.296 268.469 273.379 268.469Z" fill="#BA181B"/>
<path opacity="0.75" d="M200.028 358.934H137.46C135.805 358.934 134.464 357.593 134.464 355.939V311.342C134.464 309.688 135.805 308.347 137.46 308.347H200.028C201.683 308.347 203.024 309.688 203.024 311.342V355.939C203.024 357.593 201.683 358.934 200.028 358.934Z" fill="#E5383B"/>
<path opacity="0.75" d="M189.629 358.933H165.666V329.577C165.666 327.922 167.007 326.581 168.661 326.581H186.634C188.288 326.581 189.629 327.922 189.629 329.577V358.933Z" fill="#E5383B"/>
<path d="M186.088 384.438H151.399C148.638 384.438 146.399 382.199 146.399 379.437C146.399 376.675 148.637 374.436 151.399 374.436H186.088C188.85 374.436 191.089 376.675 191.089 379.437C191.089 382.199 188.85 384.438 186.088 384.438Z" fill="#BA181B"/>
<path d="M200.524 420.338H139.464C136.703 420.338 134.464 418.099 134.464 415.337C134.464 412.576 136.702 410.337 139.464 410.337H200.524C203.285 410.337 205.524 412.576 205.524 415.337C205.524 418.099 203.285 420.338 200.524 420.338Z" fill="#BA181B"/>
<path d="M200.524 439.808H139.464C136.703 439.808 134.464 437.569 134.464 434.807C134.464 432.046 136.702 429.807 139.464 429.807H200.524C203.285 429.807 205.524 432.046 205.524 434.807C205.524 437.569 203.285 439.808 200.524 439.808Z" fill="#BA181B"/>
<path opacity="0.75" d="M286.529 358.934H223.961C222.306 358.934 220.965 357.593 220.965 355.939V311.342C220.965 309.688 222.306 308.347 223.961 308.347H286.529C288.184 308.347 289.525 309.688 289.525 311.342V355.939C289.525 357.593 288.184 358.934 286.529 358.934Z" fill="#E5383B"/>
<path d="M276.131 358.933H252.168V329.577C252.168 327.922 253.509 326.581 255.163 326.581H273.136C274.79 326.581 276.131 327.922 276.131 329.577V358.933Z" fill="#E5383B"/>
<path d="M272.589 384.438H237.9C235.138 384.438 232.9 382.199 232.9 379.437C232.9 376.675 235.137 374.436 237.9 374.436H272.589C275.351 374.436 277.59 376.675 277.59 379.437C277.59 382.199 275.352 384.438 272.589 384.438Z" fill="#BA181B"/>
<path d="M287.025 420.338H225.966C223.204 420.338 220.965 418.099 220.965 415.337C220.965 412.576 223.203 410.337 225.966 410.337H287.025C289.787 410.337 292.026 412.576 292.026 415.337C292.026 418.099 289.787 420.338 287.025 420.338Z" fill="#BA181B"/>
<path d="M287.025 439.808H225.966C223.204 439.808 220.965 437.569 220.965 434.807C220.965 432.046 223.203 429.807 225.966 429.807H287.025C289.787 429.807 292.026 432.046 292.026 434.807C292.026 437.569 289.787 439.808 287.025 439.808Z" fill="#BA181B"/>
<path opacity="0.75" d="M373.031 358.934H310.462C308.808 358.934 307.467 357.593 307.467 355.939V311.342C307.467 309.688 308.808 308.347 310.462 308.347H373.031C374.685 308.347 376.026 309.688 376.026 311.342V355.939C376.026 357.593 374.685 358.934 373.031 358.934Z" fill="#E5383B"/>
<path d="M362.631 358.933H338.67V329.577C338.67 327.922 340.011 326.581 341.665 326.581H359.637C361.292 326.581 362.632 327.922 362.632 329.577V358.933H362.631Z" fill="#E5383B"/>
<path d="M359.091 384.438H324.402C321.64 384.438 319.401 382.199 319.401 379.437C319.401 376.675 321.639 374.436 324.402 374.436H359.091C361.852 374.436 364.091 376.675 364.091 379.437C364.091 382.199 361.852 384.438 359.091 384.438Z" fill="#BA181B"/>
<path d="M373.526 420.338H312.467C309.705 420.338 307.466 418.099 307.466 415.337C307.466 412.576 309.704 410.337 312.467 410.337H373.526C376.288 410.337 378.527 412.576 378.527 415.337C378.527 418.099 376.288 420.338 373.526 420.338Z" fill="#BA181B"/>
<path d="M373.526 439.808H312.467C309.705 439.808 307.466 437.569 307.466 434.807C307.466 432.046 309.704 429.807 312.467 429.807H373.526C376.288 429.807 378.527 432.046 378.527 434.807C378.527 437.569 376.288 439.808 373.526 439.808Z" fill="#BA181B"/>
</svg>
