<?xml version="1.0" encoding="utf-8"?>
<!-- Generator: Adobe Illustrator 25.2.3, SVG Export Plug-In . SVG Version: 6.00 Build 0)  -->
<svg version="1.1" id="Capa_1" xmlns="http://www.w3.org/2000/svg" xmlns:xlink="http://www.w3.org/1999/xlink" x="0px" y="0px"
	 viewBox="0 0 512 512" style="enable-background:new 0 0 512 512;" xml:space="preserve">
<style type="text/css">
	.st0{fill:#BA181B;}
</style>
<g>
	<g>
		<path class="st0" d="M507.7,209c-1.3-7-7.3-12.1-14.4-12.3c-7.1-0.1-13.3,4.7-14.9,11.6c-15.3,66.5-73.6,112.9-142,112.9
			c-80.3,0-145.7-65.3-145.7-145.7c0-68.3,46.4-126.7,112.9-142c6.9-1.6,11.8-7.8,11.6-14.9c-0.1-7-5.2-13-12.2-14.3
			C287.5,1.5,271.7,0,256,0C187.6,0,123.3,26.6,75,75C26.6,123.3,0,187.6,0,256s26.6,132.7,75,181c48.4,48.4,112.6,75,181,75
			s132.7-26.6,181-75c48.4-48.4,75-112.6,75-181C512,240.3,510.5,224.5,507.7,209z"/>
	</g>
</g>
</svg>
