<svg width="28" height="27" viewBox="0 0 28 27" fill="none" xmlns="http://www.w3.org/2000/svg">
<path d="M7.0383 8.61208V8.11208H6.5383H1.08185H0.581847V8.61208V26V26.5H1.08185H6.5383H7.0383V26V8.61208ZM15.6594 8.62377L15.6713 8.11208H15.1595H9.73033H9.23033V8.61208V26V26.5H9.73033H15.1049H15.6049V26V16.8755C15.6049 14.5745 17.0463 13.4341 18.3765 13.3858C19.0511 13.3613 19.7218 13.611 20.2285 14.1572C20.7353 14.7034 21.1118 15.5846 21.1118 16.8755V26V26.5H21.6118H27H27.5V26V14.9867C27.5 12.7478 26.8691 11.0403 25.8416 9.82556C24.8162 8.61326 23.4295 7.93136 21.9868 7.68191C19.7155 7.28918 17.2014 7.96109 15.6402 9.44418L15.6594 8.62377ZM6.01295 6.09323C6.61764 5.4782 6.95603 4.64567 6.95645 3.77926C6.95688 2.91284 6.61931 2.07998 6.01523 1.46434C5.41084 0.848396 4.58895 0.500438 3.72985 0.5C2.87074 0.499563 2.0485 0.846685 1.44351 1.46202C0.838811 2.07705 0.500426 2.90958 0.5 3.77599C0.499575 4.6424 0.837142 5.47527 1.44123 6.09091C2.04561 6.70685 2.86751 7.05481 3.72661 7.05525C4.58571 7.05569 5.40795 6.70856 6.01295 6.09323Z" fill="#FFAF00" stroke="black"/>
</svg>
