<svg width="258" height="281" viewBox="0 0 258 281" fill="none" xmlns="http://www.w3.org/2000/svg">
<path d="M251.917 155.584L136.905 40.5718C135.084 38.7512 132.133 38.7512 130.312 40.5718L15.3003 155.583C13.4797 157.404 13.4797 160.356 15.3003 162.176L130.312 277.188C132.133 279.009 135.084 279.009 136.905 277.188L251.917 162.176C253.737 160.356 253.737 157.404 251.917 155.584Z" stroke="#FFAF00" stroke-width="1.77" stroke-miterlimit="10"/>
<path d="M135.961 5.36659C137.443 5.36659 138.644 4.16524 138.644 2.6833C138.644 1.20136 137.443 0 135.961 0C134.479 0 133.277 1.20136 133.277 2.6833C133.277 4.16524 134.479 5.36659 135.961 5.36659Z" fill="#010101"/>
<path d="M167.701 34.4221C166.644 35.4791 164.936 35.4791 163.906 34.4221C162.849 33.365 162.849 31.6575 163.906 30.6275C164.963 29.5705 166.671 29.5705 167.701 30.6275C168.758 31.6846 168.758 33.3921 167.701 34.4221Z" fill="#010101"/>
<path d="M197.513 64.2365C196.456 65.2935 194.748 65.2935 193.718 64.2365C192.688 63.1794 192.661 61.4719 193.718 60.4419C194.775 59.3849 196.483 59.3849 197.513 60.4419C198.57 61.499 198.57 63.2065 197.513 64.2365Z" fill="#010101"/>
<path d="M227.356 94.078C226.298 95.135 224.591 95.135 223.561 94.078C222.531 93.0209 222.504 91.3134 223.561 90.2834C224.618 89.2264 226.326 89.2264 227.356 90.2834C228.413 91.3405 228.413 93.048 227.356 94.078Z" fill="#010101"/>
<path d="M255.271 124.678C256.753 124.678 257.955 123.477 257.955 121.995C257.955 120.513 256.753 119.312 255.271 119.312C253.789 119.312 252.588 120.513 252.588 121.995C252.588 123.477 253.789 124.678 255.271 124.678Z" fill="#010101"/>
<path d="M111.213 31.2238C110.156 32.2809 108.448 32.2809 107.418 31.2238C106.388 30.1668 106.361 28.4592 107.418 27.4293C108.475 26.3993 110.183 26.3722 111.213 27.4293C112.27 28.4863 112.27 30.1939 111.213 31.2238Z" fill="#010101"/>
<path d="M141.054 61.0653C139.997 62.1224 138.289 62.1224 137.259 61.0653C136.229 60.0082 136.202 58.3007 137.259 57.2707C138.316 56.2408 140.024 56.2137 141.054 57.2707C142.111 58.3278 142.111 60.0353 141.054 61.0653Z" fill="#010101"/>
<path d="M170.868 90.8797C169.811 91.9368 168.103 91.9368 167.073 90.8797C166.016 89.8227 166.016 88.1151 167.073 87.0852C168.13 86.0281 169.838 86.0281 170.868 87.0852C171.925 88.1422 171.925 89.8498 170.868 90.8797Z" fill="#010101"/>
<path d="M200.709 120.721C199.652 121.778 197.944 121.778 196.914 120.721C195.885 119.664 195.857 117.957 196.914 116.927C197.972 115.87 199.679 115.87 200.709 116.927C201.766 117.984 201.766 119.691 200.709 120.721Z" fill="#010101"/>
<path d="M228.628 151.322C230.11 151.322 231.311 150.12 231.311 148.638C231.311 147.156 230.11 145.955 228.628 145.955C227.146 145.955 225.944 147.156 225.944 148.638C225.944 150.12 227.146 151.322 228.628 151.322Z" fill="#010101"/>
<path d="M84.5698 57.8941C83.5127 58.9512 81.8052 58.9512 80.7752 57.8941C79.7182 56.8371 79.7182 55.1295 80.7752 54.0996C81.8323 53.0425 83.5398 53.0425 84.5698 54.0996C85.6268 55.1566 85.6268 56.8642 84.5698 57.8941Z" fill="#010101"/>
<path d="M114.384 87.7086C113.327 88.7656 111.619 88.7656 110.589 87.7086C109.559 86.6515 109.532 84.9439 110.589 83.914C111.646 82.884 113.354 82.8569 114.384 83.914C115.441 84.971 115.441 86.6786 114.384 87.7086Z" fill="#010101"/>
<path d="M144.225 117.55C143.168 118.607 141.46 118.607 140.43 117.55C139.373 116.493 139.373 114.785 140.43 113.755C141.488 112.698 143.195 112.698 144.225 113.755C145.282 114.813 145.282 116.52 144.225 117.55Z" fill="#010101"/>
<path d="M174.04 147.364C172.983 148.421 171.276 148.421 170.246 147.364C169.216 146.307 169.188 144.6 170.246 143.57C171.303 142.513 173.01 142.513 174.04 143.57C175.097 144.627 175.097 146.334 174.04 147.364Z" fill="#010101"/>
<path d="M203.88 177.206C202.823 178.263 201.115 178.263 200.085 177.206C199.055 176.149 199.028 174.441 200.085 173.411C201.142 172.381 202.85 172.354 203.88 173.411C204.937 174.468 204.937 176.176 203.88 177.206Z" fill="#010101"/>
<path d="M57.8998 84.5374C56.8428 85.5944 55.1352 85.5944 54.1053 84.5374C53.0482 83.4803 53.0482 81.7728 54.1053 80.7428C55.1623 79.6858 56.8699 79.6858 57.8998 80.7428C58.9569 81.7999 58.9569 83.5074 57.8998 84.5374Z" fill="#010101"/>
<path d="M87.7407 114.379C86.6837 115.436 84.9761 115.436 83.9461 114.379C82.8891 113.322 82.8891 111.614 83.9461 110.584C85.0032 109.554 86.7108 109.527 87.7407 110.584C88.7978 111.641 88.7978 113.349 87.7407 114.379Z" fill="#010101"/>
<path d="M117.555 144.193C116.498 145.25 114.791 145.25 113.761 144.193C112.704 143.136 112.704 141.429 113.761 140.399C114.818 139.342 116.525 139.342 117.555 140.399C118.612 141.456 118.612 143.163 117.555 144.193Z" fill="#010101"/>
<path d="M147.396 174.035C146.339 175.092 144.631 175.092 143.601 174.035C142.544 172.978 142.544 171.27 143.601 170.24C144.658 169.183 146.366 169.183 147.396 170.24C148.453 171.297 148.453 173.005 147.396 174.035Z" fill="#010101"/>
<path d="M177.21 203.849C176.153 204.906 174.446 204.906 173.416 203.849C172.359 202.792 172.359 201.085 173.416 200.055C174.473 198.998 176.18 198.998 177.21 200.055C178.267 201.112 178.267 202.819 177.21 203.849Z" fill="#010101"/>
<path d="M31.2573 111.208C30.2002 112.265 28.4927 112.265 27.4627 111.208C26.4057 110.151 26.4057 108.443 27.4627 107.413C28.5198 106.356 30.2273 106.356 31.2573 107.413C32.2872 108.47 32.3143 110.178 31.2573 111.208Z" fill="#010101"/>
<path d="M61.0717 141.022C60.0147 142.079 58.3071 142.079 57.2772 141.022C56.2201 139.965 56.2201 138.257 57.2772 137.228C58.3342 136.198 60.0418 136.17 61.0717 137.228C62.1017 138.285 62.1288 139.992 61.0717 141.022Z" fill="#010101"/>
<path d="M90.9125 170.864C89.8555 171.921 88.1479 171.921 87.118 170.864C86.0609 169.807 86.0609 168.099 87.118 167.069C88.175 166.012 89.8826 166.012 90.9125 167.069C91.9696 168.126 91.9696 169.834 90.9125 170.864Z" fill="#010101"/>
<path d="M120.727 200.678C119.67 201.735 117.962 201.735 116.932 200.678C115.875 199.621 115.875 197.913 116.932 196.883C117.989 195.826 119.697 195.826 120.727 196.883C121.757 197.941 121.784 199.648 120.727 200.678Z" fill="#010101"/>
<path d="M150.568 230.52C149.511 231.577 147.803 231.577 146.773 230.52C145.716 229.462 145.716 227.755 146.773 226.725C147.83 225.668 149.538 225.668 150.568 226.725C151.625 227.782 151.625 229.49 150.568 230.52Z" fill="#010101"/>
<path d="M4.58734 137.851C3.53028 138.908 1.82274 138.908 0.792792 137.851C-0.264264 136.794 -0.264264 135.086 0.792792 134.056C1.84985 132.999 3.55738 132.999 4.58734 134.056C5.61729 135.113 5.64439 136.821 4.58734 137.851Z" fill="#010101"/>
<path d="M34.4282 167.692C33.3711 168.75 31.6636 168.75 30.6336 167.692C29.5766 166.635 29.5766 164.928 30.6336 163.898C31.6907 162.868 33.3982 162.841 34.4282 163.898C35.4581 164.955 35.4852 166.663 34.4282 167.692Z" fill="#010101"/>
<path d="M64.2426 197.507C63.1856 198.564 61.478 198.564 60.4481 197.507C59.391 196.45 59.391 194.742 60.4481 193.712C61.5051 192.655 63.2127 192.655 64.2426 193.712C65.2997 194.769 65.2997 196.477 64.2426 197.507Z" fill="#010101"/>
<path d="M94.0834 227.348C93.0264 228.405 91.3188 228.405 90.2889 227.348C89.2318 226.291 89.2318 224.584 90.2889 223.554C91.3459 222.497 93.0535 222.497 94.0834 223.554C95.1134 224.611 95.1405 226.318 94.0834 227.348Z" fill="#010101"/>
<path d="M123.898 257.163C122.841 258.22 121.133 258.22 120.103 257.163C119.046 256.106 119.046 254.398 120.103 253.368C121.16 252.311 122.868 252.311 123.898 253.368C124.928 254.425 124.955 256.133 123.898 257.163Z" fill="#010101"/>
</svg>
