<svg width="142" height="142" viewBox="0 0 142 142" fill="none" xmlns="http://www.w3.org/2000/svg">
<path d="M69.0625 1.93756L1.93755 69.0625C0.867483 70.1325 0.867444 71.8675 1.93751 72.9375L69.0625 140.062C70.1325 141.133 71.8675 141.133 72.9375 140.062L140.062 72.9375C141.133 71.8675 141.133 70.1325 140.062 69.0625L72.9375 1.93752C71.8675 0.867453 70.1325 0.867492 69.0625 1.93756Z" stroke="#FFAF00" stroke-width="2" stroke-miterlimit="10"/>
<path d="M65.11 36.3285L36.3021 65.1364C33.0497 68.3888 33.0497 73.6621 36.3021 76.9145L65.11 105.722C68.3625 108.975 73.6357 108.975 76.8881 105.722L105.696 76.9145C108.948 73.6621 108.948 68.3889 105.696 65.1364L76.8881 36.3285C73.6357 33.0761 68.3624 33.0761 65.11 36.3285Z" stroke="#010101" stroke-width="2" stroke-miterlimit="10"/>
</svg>
