<svg width="178" height="178" viewBox="0 0 178 178" fill="none" xmlns="http://www.w3.org/2000/svg">
<path d="M177.5 57.1524C177.5 88.6534 151.849 114.305 120.348 114.305C88.8466 114.305 63.1953 88.6534 63.1953 57.1524C63.1953 25.6513 88.8466 3.05889e-07 120.348 6.81535e-07C151.849 1.05718e-06 177.5 25.6513 177.5 57.1524ZM90.0906 57.1524C90.0906 73.8274 103.673 87.4095 120.348 87.4095C137.023 87.4095 150.605 73.8274 150.605 57.1524C150.605 40.4773 137.023 26.8952 120.348 26.8952C103.673 26.8952 90.0906 40.4773 90.0906 57.1524Z" fill="#010101"/>
<path d="M115.305 119.348C115.305 150.849 89.6534 176.5 58.1524 176.5C26.6513 176.5 1 150.849 1 119.348C1 87.8466 26.6513 62.1952 58.1524 62.1952C89.6534 62.1952 115.305 87.8466 115.305 119.348ZM27.8952 119.348C27.8952 136.023 41.4773 149.605 58.1524 149.605C74.8274 149.605 88.4095 136.023 88.4095 119.348C88.4095 102.673 74.8274 89.0905 58.1524 89.0905C41.4773 89.0905 27.8952 102.673 27.8952 119.348Z" stroke="#FFAF00" stroke-width="2" stroke-miterlimit="10"/>
</svg>