<svg width="392" height="529" viewBox="0 0 392 529" fill="none" xmlns="http://www.w3.org/2000/svg">
<path d="M256.895 55.735C331.039 129.197 331.176 248.402 256.895 322L-11.8281 55.735C62.3165 -17.7269 182.75 -17.7269 256.895 55.735Z" fill="#FFAF00"/>
<path d="M-18.3403 329.265C-92.4849 255.803 -92.6215 136.598 -18.3403 63L250.383 329.265C176.238 402.727 55.8042 402.727 -18.3403 329.265Z" stroke="#FFAF00" stroke-width="1.77" stroke-miterlimit="10"/>
<path d="M103.817 447.575L119.879 463.637" stroke="#010101" stroke-width="3" stroke-linecap="round" stroke-linejoin="round"/>
<path d="M48.6719 392.402L78.1948 421.952" stroke="#010101" stroke-width="3" stroke-linecap="round" stroke-linejoin="round"/>
<path d="M98.7266 395.978L209.938 507.19" stroke="#010101" stroke-width="3" stroke-linecap="round" stroke-linejoin="round"/>
<path d="M178.654 429.428L276.513 527.287" stroke="#FFAF00" stroke-width="3" stroke-linecap="round" stroke-linejoin="round"/>
<path d="M30.9863 281.786L135.346 386.119" stroke="#FFAF00" stroke-width="3" stroke-linecap="round" stroke-linejoin="round"/>
<path d="M112.811 317.106L285.533 489.828" stroke="#010101" stroke-width="3" stroke-linecap="round" stroke-linejoin="round"/>
<path d="M41.3867 245.682L77.9518 282.247" stroke="#010101" stroke-width="3" stroke-linecap="round" stroke-linejoin="round"/>
<path d="M255.413 413.231L296.935 454.753" stroke="#010101" stroke-width="3" stroke-linecap="round" stroke-linejoin="round"/>
<path d="M0 157.817L211.752 369.57" stroke="#010101" stroke-width="3" stroke-linecap="round" stroke-linejoin="round"/>
<path d="M169.852 281.191L376.701 488.04" stroke="#FFAF00" stroke-width="3" stroke-linecap="round" stroke-linejoin="round"/>
<path d="M78.4648 189.805L126.541 237.881" stroke="#FFAF00" stroke-width="3" stroke-linecap="round" stroke-linejoin="round"/>
<path d="M209.992 274.853L343.631 408.464" stroke="#010101" stroke-width="3" stroke-linecap="round" stroke-linejoin="round"/>
<path d="M73.5635 138.424L172.316 237.177" stroke="#010101" stroke-width="3" stroke-linecap="round" stroke-linejoin="round"/>
<path d="M320.2 338.584L389.999 408.383" stroke="#FFAF00" stroke-width="3" stroke-linecap="round" stroke-linejoin="round"/>
<path d="M133.91 152.292L269.499 287.881" stroke="#FFAF00" stroke-width="3" stroke-linecap="round" stroke-linejoin="round"/>
<path d="M252.596 224.501L346.879 318.785" stroke="#010101" stroke-width="3" stroke-linecap="round" stroke-linejoin="round"/>
<path d="M145.097 117L215.627 187.503" stroke="#010101" stroke-width="3" stroke-linecap="round" stroke-linejoin="round"/>
<path d="M336.398 261.825L373.072 298.498" stroke="#FFAF00" stroke-width="3" stroke-linecap="round" stroke-linejoin="round"/>
<path d="M201.515 126.94L294.498 219.897" stroke="#FFAF00" stroke-width="3" stroke-linecap="round" stroke-linejoin="round"/>
<path d="M317.331 196.278L339.866 218.813" stroke="#010101" stroke-width="3" stroke-linecap="round" stroke-linejoin="round"/>
<path d="M277.759 156.707L293.306 172.254" stroke="#010101" stroke-width="3" stroke-linecap="round" stroke-linejoin="round"/>
</svg>
