<svg width="512" height="512" viewBox="0 0 512 512" fill="none" xmlns="http://www.w3.org/2000/svg">
<g opacity="0.1">
<path opacity="0.1" d="M411.331 63.636H100.669C95.14 63.636 90.658 68.118 90.658 73.647V113.732C90.658 119.261 95.14 123.743 100.669 123.743H411.33C416.859 123.743 421.341 119.261 421.341 113.732V73.647C421.341 68.118 416.859 63.636 411.331 63.636V63.636Z" fill="#BA181B"/>
<path opacity="0.1" d="M411.331 160.415H100.669C95.14 160.415 90.658 164.897 90.658 170.426V210.511C90.658 216.04 95.14 220.522 100.669 220.522H411.33C416.859 220.522 421.341 216.04 421.341 210.511V170.426C421.341 164.897 416.859 160.415 411.331 160.415V160.415Z" fill="#BA181B"/>
<path opacity="0.1" d="M411.331 257.193H100.669C95.14 257.193 90.658 261.675 90.658 267.204V307.289C90.658 312.818 95.14 317.3 100.669 317.3H411.33C416.859 317.3 421.341 312.818 421.341 307.289V267.204C421.341 261.675 416.859 257.193 411.331 257.193V257.193Z" fill="#BA181B"/>
<path opacity="0.1" d="M330.58 387.368H181.42C175.891 387.368 171.409 391.85 171.409 397.379V417.353C171.409 422.882 175.891 427.364 181.42 427.364H330.58C336.109 427.364 340.591 422.882 340.591 417.353V397.379C340.59 391.85 336.108 387.368 330.58 387.368Z" fill="#BA181B"/>
</g>
<path d="M270.846 329.029V356.058C270.846 361.584 266.371 366.069 260.835 366.069H251.165C245.629 366.069 241.154 361.584 241.154 356.058V329.029H270.846Z" fill="white"/>
<path opacity="0.75" d="M108.513 131.052H403.488V293.886H108.513V131.052Z" fill="#E5383B"/>
<path d="M411.331 144.743H100.669C95.14 144.743 90.658 140.261 90.658 134.732V94.647C90.658 89.118 95.14 84.636 100.669 84.636H411.33C416.859 84.636 421.341 89.118 421.341 94.647V134.732C421.341 140.261 416.859 144.743 411.331 144.743V144.743Z" fill="white"/>
<path d="M135.62 120.293C138.714 120.293 141.223 117.784 141.223 114.69C141.223 111.595 138.714 109.087 135.62 109.087C132.526 109.087 130.017 111.595 130.017 114.69C130.017 117.784 132.526 120.293 135.62 120.293Z" fill="#BA181B"/>
<path d="M152.57 120.293C155.664 120.293 158.173 117.784 158.173 114.69C158.173 111.595 155.664 109.087 152.57 109.087C149.475 109.087 146.967 111.595 146.967 114.69C146.967 117.784 149.475 120.293 152.57 120.293Z" fill="#BA181B"/>
<path d="M169.519 120.293C172.613 120.293 175.122 117.784 175.122 114.69C175.122 111.595 172.613 109.087 169.519 109.087C166.425 109.087 163.916 111.595 163.916 114.69C163.916 117.784 166.425 120.293 169.519 120.293Z" fill="#BA181B"/>
<path d="M283.004 109.676H206.186C203.568 109.676 201.229 111.59 200.98 114.197C200.695 117.187 203.038 119.704 205.97 119.704H283.003C285.772 119.704 288.017 117.459 288.017 114.69C288.018 111.921 285.773 109.676 283.004 109.676V109.676Z" fill="#BA181B"/>
<path d="M382.611 109.676H305.793C303.175 109.676 300.836 111.59 300.587 114.197C300.302 117.187 302.645 119.704 305.577 119.704H382.61C385.379 119.704 387.624 117.459 387.624 114.69C387.625 111.921 385.38 109.676 382.611 109.676V109.676Z" fill="#BA181B"/>
<path d="M411.331 241.521H100.669C95.14 241.521 90.658 237.039 90.658 231.51V191.425C90.658 185.896 95.14 181.414 100.669 181.414H411.33C416.859 181.414 421.341 185.896 421.341 191.425V231.51C421.341 237.04 416.859 241.521 411.331 241.521V241.521Z" fill="white"/>
<path d="M135.62 217.071C138.714 217.071 141.223 214.562 141.223 211.468C141.223 208.374 138.714 205.865 135.62 205.865C132.526 205.865 130.017 208.374 130.017 211.468C130.017 214.562 132.526 217.071 135.62 217.071Z" fill="#BA181B"/>
<path d="M152.57 217.071C155.664 217.071 158.173 214.562 158.173 211.468C158.173 208.374 155.664 205.865 152.57 205.865C149.475 205.865 146.967 208.374 146.967 211.468C146.967 214.562 149.475 217.071 152.57 217.071Z" fill="#BA181B"/>
<path d="M169.519 217.071C172.613 217.071 175.122 214.562 175.122 211.468C175.122 208.374 172.613 205.865 169.519 205.865C166.425 205.865 163.916 208.374 163.916 211.468C163.916 214.562 166.425 217.071 169.519 217.071Z" fill="#BA181B"/>
<path d="M283.004 206.454H206.186C203.568 206.454 201.229 208.368 200.98 210.975C200.695 213.965 203.038 216.482 205.97 216.482H283.003C285.772 216.482 288.017 214.237 288.017 211.468C288.018 208.699 285.773 206.454 283.004 206.454V206.454Z" fill="#BA181B"/>
<path d="M382.611 206.454H305.793C303.175 206.454 300.836 208.368 300.587 210.975C300.302 213.965 302.645 216.482 305.577 216.482H382.61C385.379 216.482 387.624 214.237 387.624 211.468C387.625 208.699 385.38 206.454 382.611 206.454V206.454Z" fill="#BA181B"/>
<path d="M411.331 338.3H100.669C95.14 338.3 90.658 333.818 90.658 328.289V288.204C90.658 282.675 95.14 278.193 100.669 278.193H411.33C416.859 278.193 421.341 282.675 421.341 288.204V328.289C421.341 333.818 416.859 338.3 411.331 338.3V338.3Z" fill="white"/>
<path d="M135.62 313.85C138.714 313.85 141.223 311.341 141.223 308.247C141.223 305.153 138.714 302.644 135.62 302.644C132.526 302.644 130.017 305.153 130.017 308.247C130.017 311.341 132.526 313.85 135.62 313.85Z" fill="#BA181B"/>
<path d="M152.57 313.85C155.665 313.85 158.173 311.341 158.173 308.247C158.173 305.153 155.665 302.644 152.57 302.644C149.476 302.644 146.967 305.153 146.967 308.247C146.967 311.341 149.476 313.85 152.57 313.85Z" fill="#BA181B"/>
<path d="M169.519 313.85C172.613 313.85 175.122 311.341 175.122 308.247C175.122 305.153 172.613 302.644 169.519 302.644C166.425 302.644 163.916 305.153 163.916 308.247C163.916 311.341 166.425 313.85 169.519 313.85Z" fill="#BA181B"/>
<path d="M283.004 303.233H206.186C203.568 303.233 201.229 305.147 200.98 307.754C200.695 310.744 203.038 313.261 205.97 313.261H283.003C285.772 313.261 288.017 311.016 288.017 308.247C288.018 305.478 285.773 303.233 283.004 303.233V303.233Z" fill="#BA181B"/>
<path d="M382.611 303.233H305.793C303.175 303.233 300.836 305.147 300.587 307.754C300.302 310.744 302.645 313.261 305.577 313.261H382.61C385.379 313.261 387.624 311.016 387.624 308.247C387.625 305.478 385.38 303.233 382.611 303.233V303.233Z" fill="#BA181B"/>
<path d="M330.58 448.363H181.42C175.891 448.363 171.409 443.881 171.409 438.352V418.378C171.409 412.849 175.891 408.367 181.42 408.367H330.58C336.109 408.367 340.591 412.849 340.591 418.378V438.352C340.59 443.881 336.108 448.363 330.58 448.363Z" fill="white"/>
<path d="M466.275 423.366H345.59V418.379C345.59 410.102 338.857 403.368 330.58 403.368H283.569C280.807 403.368 278.569 405.606 278.569 408.368C278.569 411.13 280.807 413.368 283.569 413.368H330.58C333.343 413.368 335.59 415.616 335.59 418.379V438.353C335.59 441.116 333.343 443.364 330.58 443.364H181.42C178.657 443.364 176.409 441.116 176.409 438.353V418.379C176.409 415.616 178.657 413.368 181.42 413.368H256C258.762 413.368 261 411.13 261 408.368V371.06C269.203 370.972 275.85 364.28 275.85 356.057V343.3H411.331C419.607 343.3 426.341 336.567 426.341 328.289V288.204C426.341 279.927 419.608 273.193 411.331 273.193H408.491V246.521H411.331C419.607 246.521 426.341 239.788 426.341 231.51V191.425C426.341 183.148 419.608 176.414 411.331 176.414H408.491V149.742H411.331C419.607 149.742 426.341 143.009 426.341 134.731V94.647C426.341 86.37 419.608 79.636 411.331 79.636H100.668C92.391 79.636 85.657 86.369 85.657 94.647V134.732C85.657 143.009 92.391 149.743 100.668 149.743H103.508V176.415H100.668C92.391 176.415 85.657 183.148 85.657 191.426V231.511C85.657 239.788 92.391 246.522 100.668 246.522H103.508V273.194H100.668C92.391 273.194 85.657 279.927 85.657 288.205V328.29C85.657 336.567 92.391 343.301 100.668 343.301H236.15V356.059C236.15 364.282 242.797 370.974 250.999 371.062V403.37H181.419C173.142 403.37 166.408 410.103 166.408 418.381V423.368H45.724C42.963 423.368 40.724 425.606 40.724 428.368C40.724 431.13 42.963 433.368 45.724 433.368H166.41V438.354C166.41 446.631 173.144 453.365 181.421 453.365H330.581C338.857 453.365 345.591 446.632 345.591 438.354V433.368H466.277C469.039 433.368 471.277 431.13 471.277 428.368C471.277 425.606 469.037 423.366 466.275 423.366V423.366ZM95.659 134.732V94.647C95.659 91.884 97.907 89.636 100.67 89.636H411.332C414.095 89.636 416.342 91.884 416.342 94.647V134.732C416.342 137.495 414.095 139.743 411.332 139.743H100.668C97.906 139.743 95.658 137.495 95.659 134.732V134.732ZM95.659 231.511V191.426C95.659 188.663 97.907 186.415 100.67 186.415H108.513C111.274 186.415 113.513 184.177 113.513 181.415C113.513 181.403 113.51 181.393 113.51 181.381V149.743H398.492V176.415H136.083C133.322 176.415 131.083 178.653 131.083 181.415C131.083 184.177 133.322 186.415 136.083 186.415H411.332C414.095 186.415 416.342 188.663 416.342 191.426V231.511C416.342 234.274 414.095 236.522 411.332 236.522H100.669C97.907 236.521 95.659 234.273 95.659 231.511V231.511ZM113.509 246.521H398.491V273.193H113.509V246.521ZM95.659 328.289V288.204C95.659 285.441 97.907 283.193 100.67 283.193H411.332C414.095 283.193 416.342 285.441 416.342 288.204V328.289C416.342 331.052 414.095 333.3 411.332 333.3H100.668C97.906 333.3 95.658 331.052 95.659 328.289V328.289ZM246.151 356.058V343.3H265.85V356.058C265.85 358.821 263.602 361.069 260.839 361.069H251.162C248.399 361.068 246.151 358.82 246.151 356.058V356.058Z" fill="#BA181B"/>
</svg>
