<svg id="Capa_1" enable-background="new 0 0 511.45 511.45" height="512" viewBox="0 0 511.45 511.45" width="512" xmlns="http://www.w3.org/2000/svg"><g><path d="m264.118 58.883c-.167 0-.333-.006-.5-.006-108.654 0-196.735 88.081-196.735 196.735s88.081 196.735 196.735 196.735c.167 0 .333-.006.5-.006z" fill="#fdb441"/><g><g><path d="m264.118 160.379c-4.142 0-7.5-3.357-7.5-7.5v-145.269c0-4.143 3.358-7.5 7.5-7.5s7.5 3.357 7.5 7.5v145.27c0 4.142-3.358 7.499-7.5 7.499z" fill="#fec165"/></g><g><path d="m264.118 511.45c-4.142 0-7.5-3.357-7.5-7.5v-94.38c0-4.143 3.358-7.5 7.5-7.5s7.5 3.357 7.5 7.5v94.38c0 4.142-3.358 7.5-7.5 7.5z" fill="#fec165"/></g><path d="m264.12 101.986c-85.49 0-154.79 69.3-154.79 154.79 0 82.975 65.284 150.694 147.29 154.606l.185-.433 1.964.306.851.242c1.495.043 2.995.07 4.5.07l51.353-65.952v-189.773z" fill="#fedf30"/><path d="m165.156 258.042c0-67.858 40.253-126.706 99.141-155.864l-.168-.192c-85.49 0-154.801 69.304-154.801 154.794 0 83.984 66.892 152.335 150.3 154.716-56.329-29.909-94.472-87.41-94.472-153.454z" fill="#fed402"/><g id="XMLID_200_"><g><path d="m264.129 101.986c85.49 0 154.779 69.304 154.779 154.794s-69.3 154.79-154.79 154.79z" fill="#f3eae6"/></g></g><g><path d="m38.676 264.28h-21.725c-4.142 0-7.5-3.357-7.5-7.5s3.358-7.5 7.5-7.5h21.726c4.142 0 7.5 3.357 7.5 7.5-.001 4.142-3.359 7.5-7.501 7.5z" fill="#fedba6"/></g><g><path d="m173.999 62.845c-2.867 0-5.604-1.652-6.851-4.439l-11.635-26.005c-1.691-3.78.002-8.217 3.783-9.908 3.783-1.691 8.218.002 9.909 3.783l11.635 26.005c1.691 3.78-.002 8.217-3.783 9.908-.994.445-2.035.656-3.058.656z" fill="#fedba6"/></g><g><path d="m58.049 167.942c-1.064 0-2.144-.228-3.172-.708l-19.653-9.188c-3.752-1.754-5.372-6.218-3.617-9.971 1.754-3.752 6.219-5.371 9.97-3.617l19.653 9.188c3.752 1.754 5.372 6.218 3.618 9.971-1.274 2.724-3.977 4.325-6.799 4.325z" fill="#fedba6"/></g><g><path d="m104.006 102.757c-1.931 0-3.86-.74-5.327-2.22l-86.99-87.756c-2.916-2.943-2.895-7.691.047-10.607 2.941-2.917 7.69-2.896 10.606.046l86.991 87.757c2.916 2.942 2.895 7.69-.047 10.606-1.462 1.451-3.371 2.174-5.28 2.174z" fill="#fec165"/></g><g><path d="m162.355 491.723c-1.023 0-2.063-.211-3.059-.656-3.781-1.691-5.475-6.128-3.783-9.908l11.635-26.005c1.691-3.781 6.126-5.476 9.909-3.783 3.781 1.691 5.475 6.128 3.783 9.908l-11.635 26.005c-1.245 2.786-3.983 4.439-6.85 4.439z" fill="#fedba6"/></g><g><path d="m38.406 369.81c-2.822 0-5.525-1.601-6.799-4.325-1.754-3.753-.135-8.217 3.617-9.971l19.653-9.188c3.754-1.755 8.217-.134 9.971 3.617 1.754 3.753.135 8.217-3.618 9.971l-19.653 9.188c-1.027.481-2.108.708-3.171.708z" fill="#fedba6"/></g><g><path d="m18.927 508.139c-1.909 0-3.817-.724-5.28-2.174-2.942-2.916-2.963-7.664-.047-10.606l86.991-87.757c2.917-2.942 7.666-2.963 10.606-.046 2.942 2.916 2.963 7.664.047 10.606l-86.991 87.757c-1.466 1.479-3.396 2.22-5.326 2.22z" fill="#fec165"/></g><path d="m449.77 53.492c-5.013-3.49-9.256-7.679-12.687-12.603-2.396-3.439-7.428-3.605-9.964-.268-3.463 4.557-7.695 8.662-12.623 12.359-3.454 2.59-3.37 7.75.207 10.166 4.911 3.317 9.133 7.417 12.589 12.39 2.412 3.472 7.532 3.472 10.022.056 3.355-4.602 7.579-8.538 12.476-11.961 3.533-2.471 3.519-7.675-.02-10.139z" fill="#fee97d"/><g><path d="m474.28 229.171c-4.142 0-7.5-3.357-7.5-7.5v-40.438c0-4.143 3.358-7.5 7.5-7.5s7.5 3.357 7.5 7.5v40.438c0 4.143-3.358 7.5-7.5 7.5z" fill="#fef48b"/></g><g><path d="m494.499 208.953h-40.438c-4.142 0-7.5-3.357-7.5-7.5s3.358-7.5 7.5-7.5h40.438c4.142 0 7.5 3.357 7.5 7.5s-3.358 7.5-7.5 7.5z" fill="#fef48b"/></g><path d="m444.127 391.997 3.653 11.242c.848 2.61 3.28 4.377 6.025 4.377h11.82c6.137 0 8.688 7.853 3.724 11.46l-9.563 6.948c-2.22 1.613-3.149 4.473-2.301 7.083l3.653 11.242c1.896 5.836-4.784 10.69-9.748 7.083l-9.563-6.948c-2.22-1.613-5.227-1.613-7.447 0l-9.563 6.948c-4.965 3.607-11.645-1.246-9.748-7.083l3.653-11.242c.848-2.61-.081-5.469-2.301-7.083l-9.563-6.948c-4.965-3.607-2.413-11.46 3.724-11.46h11.82c2.744 0 5.177-1.767 6.025-4.377l3.653-11.242c1.894-5.837 10.151-5.837 12.047 0z" fill="#fee97d"/><g id="XMLID_201_"><g fill="#efe2dd"><path d="m360.488 339.48c10.42 0 19.58 5.39 24.87 13.52-12.24 15.43-27.38 28.46-44.59 38.28-6.1-5.43-9.94-13.34-9.94-22.14 0-16.38 13.28-29.66 29.66-29.66z"/><path d="m277.248 314.85c11.71 0 21.2 9.49 21.2 21.2s-9.49 21.19-21.2 21.19c-4.96 0-9.52-1.72-13.13-4.57v-33.24c3.61-2.86 8.17-4.58 13.13-4.58z"/><path d="m403.808 190.03c-5.6 3.11-12.05 4.89-18.91 4.89-21.58 0-39.07-17.5-39.07-39.07 0-9.36 3.29-17.94 8.77-24.66 20.95 15.1 37.96 35.33 49.21 58.84z"/><path d="m345.828 239.29c13.2 0 23.91 10.71 23.91 23.91s-10.71 23.9-23.91 23.9-23.9-10.7-23.9-23.9 10.7-23.91 23.9-23.91z"/><path d="m280.128 148.24c16.56 0 29.98 13.42 29.98 29.97 0 16.56-13.42 29.98-29.98 29.98-5.89 0-11.38-1.71-16.01-4.64v-50.67c4.63-2.94 10.12-4.64 16.01-4.64z"/></g></g></g></g></svg>