<?xml version="1.0" encoding="utf-8"?>
<!-- Generator: Adobe Illustrator 25.4.0, SVG Export Plug-In . SVG Version: 6.00 Build 0)  -->
<svg version="1.1" id="Calque_1" xmlns="http://www.w3.org/2000/svg" xmlns:xlink="http://www.w3.org/1999/xlink" x="0px" y="0px"
	 viewBox="0 0 62 62" style="enable-background:new 0 0 62 62;" xml:space="preserve">
<style type="text/css">
	.st0{fill:#BA181B;}
</style>
<path class="st0" d="M0,58.1c0,1,0.4,2,1.1,2.7C1.9,61.6,2.8,62,3.9,62h54.2c1,0,2-0.4,2.7-1.1c0.7-0.7,1.1-1.7,1.1-2.7
	s-0.4-2-1.1-2.7s-1.7-1.1-2.7-1.1H3.9c-1,0-2,0.4-2.7,1.1C0.4,56.1,0,57.1,0,58.1z"/>
<path class="st0" d="M0,3.9c0,1,0.4,2,1.1,2.7c0.7,0.7,1.7,1.1,2.7,1.1l54.2,0c1,0,2-0.4,2.7-1.1C61.6,5.9,62,4.9,62,3.9
	s-0.4-2-1.1-2.7C60.1,0.4,59.2,0,58.1,0L3.9,0c-1,0-2,0.4-2.7,1.1C0.4,1.9,0,2.8,0,3.9z"/>
<path class="st0" d="M3.9,34.9c-1,0-2-0.4-2.7-1.1S0,32,0,31s0.4-2,1.1-2.7s1.7-1.1,2.7-1.1h54.2c1,0,2,0.4,2.7,1.1S62,30,62,31
	s-0.4,2-1.1,2.7s-1.7,1.1-2.7,1.1H3.9z"/>
</svg>
