<svg width="38" height="24" viewBox="0 0 38 24" fill="none" xmlns="http://www.w3.org/2000/svg">
<path d="M1 0.5H0.5V1V22.949V23.449H1L11.45 23.449L11.4533 23.449C13.4747 23.4358 15.4817 22.9347 16.9971 21.8153C18.532 20.6814 19.525 18.9384 19.525 16.5504C19.525 13.9869 18.4647 11.6835 16.2621 10.5804C16.8337 10.2145 17.3157 9.80272 17.6863 9.30211C18.2542 8.53485 18.525 7.60782 18.525 6.42989C18.525 4.09714 17.6681 2.56674 16.2458 1.65037C14.8662 0.761528 13.0282 0.5 11.15 0.5H1ZM23.85 2.10603H23.35V2.60603V4.77289V5.27289H23.85H32.55H33.05V4.77289V2.60603V2.10603H32.55H23.85ZM36.1768 17.797L36.382 17.1466H35.7H31.925H31.5581L31.448 17.4965C31.2851 18.0145 30.8765 18.4424 30.3237 18.7481C29.7709 19.0538 29.1168 19.2115 28.55 19.2115C27.3882 19.2115 26.5801 18.8683 26.0574 18.3042C25.6066 17.8175 25.3191 17.1136 25.2444 16.1837H35.95H36.4034L36.4476 15.7325C36.473 15.474 36.5 15.1482 36.5 14.8424C36.5 12.4049 35.7922 10.1374 34.4135 8.4694C33.0262 6.79105 30.9839 5.75145 28.4 5.75145C23.3666 5.75145 19.95 9.60313 19.95 14.6385C19.95 17.2124 20.7383 19.4329 22.2123 21.0147C23.6902 22.6006 25.8164 23.5 28.4 23.5C30.3391 23.5 31.9876 23.0547 33.3094 22.0949C34.6318 21.1347 35.578 19.6954 36.1768 17.797ZM6.25 4.865H10.2C11.007 4.865 11.6987 4.98505 12.1757 5.28299C12.6104 5.5545 12.925 6.00906 12.925 6.86327C12.925 7.67922 12.6673 8.17985 12.2939 8.48867C11.9038 8.81119 11.31 8.98899 10.525 8.98899H6.25V4.865ZM28.25 10.0145C29.2332 10.0145 29.9029 10.3048 30.3508 10.7742C30.7201 11.1613 30.9784 11.7117 31.1071 12.4305H25.288C25.4162 11.7402 25.7083 11.1918 26.1142 10.797C26.6175 10.3076 27.3362 10.0145 28.25 10.0145ZM6.225 13.6344H10.9C11.8773 13.6344 12.5892 13.8461 13.0526 14.2436C13.5013 14.6286 13.8 15.2602 13.8 16.2955C13.8 17.2553 13.4652 17.8107 12.9843 18.1489C12.4717 18.5094 11.7178 18.6761 10.8 18.6761H6.225V13.6344Z" fill="#FFAF00" stroke="black"/>
</svg>
