<svg width="33" height="32" viewBox="0 0 33 32" fill="none" xmlns="http://www.w3.org/2000/svg">
<path d="M11.3576 31.445L11.3928 31.4567L11.4295 31.4631C11.9233 31.5495 12.3543 31.456 12.6642 31.1815C12.9622 30.9176 13.073 30.5517 13.073 30.2401C13.073 30.1105 13.0706 29.8771 13.0676 29.576C13.0663 29.4455 13.0648 29.3022 13.0634 29.1492C13.0586 28.6404 13.0538 28.0174 13.0538 27.3757V26.7752L12.4633 26.8839C10.6022 27.2265 9.51551 26.9841 8.87898 26.6272C8.2482 26.2735 7.9827 25.7643 7.85356 25.4011L7.85093 25.3937L7.84807 25.3864C7.74566 25.1247 7.4966 24.6417 7.19225 24.1789C7.03834 23.9448 6.86355 23.7055 6.67813 23.4961C6.49721 23.2918 6.28425 23.0907 6.04998 22.9598L6.05001 22.9597L6.04218 22.9555C6.00111 22.9335 5.95805 22.9082 5.91495 22.8806C6.3101 22.9082 6.67421 23.1002 6.99373 23.3683C7.34191 23.6606 7.59681 24.0106 7.72471 24.2144C8.50013 25.5144 9.54194 26.0187 10.5327 26.1098C11.4918 26.1979 12.358 25.8967 12.8383 25.6774L13.0894 25.5628L13.1262 25.2893C13.247 24.3917 13.6018 23.8362 13.9392 23.5429L14.7983 22.7958L13.6669 22.6687C11.9858 22.4798 10.3581 22.0664 9.15149 21.0484C7.96872 20.0506 7.11348 18.4042 7.11348 15.572C7.11348 14.0281 7.66018 12.763 8.55954 11.7754L8.77043 11.5439L8.65411 11.2531C8.53446 10.954 8.0741 9.63963 8.70303 7.82955C8.82936 7.8314 9.01106 7.84688 9.25139 7.89796C9.86458 8.02829 10.8631 8.39125 12.2938 9.35439L12.4857 9.48358L12.7084 9.42094C13.8924 9.08794 15.1539 8.92056 16.4179 8.92056C17.6818 8.92056 18.9433 9.08794 20.1273 9.42094L20.3513 9.48395L20.5438 9.35313C21.974 8.38095 22.9714 8.0189 23.5827 7.8911C23.8239 7.84066 24.0057 7.82655 24.1314 7.82587C24.7622 9.63785 24.3013 10.9538 24.1816 11.2531L24.0653 11.5439L24.2762 11.7754C25.1761 12.7636 25.7222 14.0097 25.7222 15.572C25.7222 18.4135 24.8625 20.0593 23.6757 21.0547C22.4644 22.0707 20.832 22.4797 19.1495 22.6687L18.0116 22.7966L18.8789 23.5443C19.3017 23.9088 19.7435 24.6786 19.7435 26.0108C19.7435 27.0377 19.7387 27.9641 19.7339 28.6989C19.7323 28.9406 19.7307 29.1622 19.7293 29.3599C19.7264 29.7614 19.7243 30.0648 19.7243 30.2401C19.7243 30.5494 19.8335 30.9191 20.1301 31.1861C20.4426 31.4673 20.8797 31.5609 21.3797 31.4609L21.4106 31.4547L21.4406 31.4447C27.7133 29.3405 32.2588 23.3866 32.2588 16.3794C32.2588 7.60614 25.1527 0.5 16.3794 0.5C7.60614 0.5 0.5 7.60614 0.5 16.3794C0.5 23.4068 5.04658 29.3413 11.3576 31.445Z" fill="#FFAF00" stroke="black"/>
</svg>
