<?xml version="1.0" encoding="utf-8"?>
<!-- Generator: Adobe Illustrator 25.2.0, SVG Export Plug-In . SVG Version: 6.00 Build 0)  -->
<svg version="1.1" id="Calque_1" xmlns="http://www.w3.org/2000/svg" xmlns:xlink="http://www.w3.org/1999/xlink" x="0px" y="0px"
	 viewBox="0 0 158 210" style="enable-background:new 0 0 158 210;" xml:space="preserve">
<style type="text/css">
	.st0{display:none;fill:#613DC1;}
	.st1{fill:#FFFFFF;stroke:#613DC1;stroke-width:2;stroke-miterlimit:10;}
</style>
<path class="st0" d="M0,0v210l79-40l79,40V0H0z"/>
<path class="st1" d="M81.2,92.2c0.2-4.1,2.2-7.7,5.3-10.3c3.2-2.6,7.2-4.1,11.3-4.1c4.4,0,8.4,1.5,11.4,4.1c3,2.6,5,6.2,5.3,10.3
	c0.2,4.2-1.5,8.1-4.4,11c-3.3,3.1-7.6,4.9-12.2,4.8c-4.5,0-8.9-1.7-12.2-4.8C82.6,100.4,80.9,96.4,81.2,92.2z"/>
<path class="st1" d="M54.7,100.5c0,1.6,0.5,4.7,1.3,7.2c1.7,5.3,4.5,10.1,8.2,14.1c4,4.4,8.9,7.9,14.3,10.3
	c5.9,2.6,12.3,3.9,18.8,3.9c6.5,0,12.9-1.3,18.8-4c5.4-2.4,10.3-5.9,14.3-10.3c3.7-4.1,6.5-8.9,8.2-14.2c0.8-2.6,1.3-5.2,1.5-7.9
	c0.6-7.8-1.3-15.5-5.5-22.1c-2.5-4-5.7-7.6-9.5-10.5l0,0L86.6,37.5l-0.1-0.1c-2.5-1.9-6.8-1.9-9.5,0c-2.8,2-3.1,5.2-0.6,7.3l0,0
	l16,13l-48.9,0.1h-0.1c-4,0-7.9,2.7-8.7,6c-0.8,3.4,2,6.2,6.2,6.3l0,0l24.8,0L21.4,104l-0.2,0.1c-4.2,3.2-5.5,8.5-2.9,11.9
	c2.7,3.4,8.3,3.4,12.6,0L55,96.3C55,96.3,54.7,98.9,54.7,100.5L54.7,100.5z M116.7,109.5c-5,5.1-11.9,7.9-19.5,8
	c-7.5,0-14.5-2.8-19.5-7.9c-2.4-2.4-4.2-5.2-5.3-8.3c-1.1-3-1.5-6.1-1.2-9.3c0.3-3.1,1.2-6.1,2.7-8.7c1.5-2.6,3.5-5,5.9-7
	c4.9-4,11.1-6.1,17.4-6.1c6.3-0.1,12.5,2.1,17.4,6c2.5,2,4.5,4.4,5.9,7c1.5,2.7,2.4,5.6,2.7,8.7c0.3,3.2-0.1,6.3-1.2,9.3
	C120.9,104.2,119.1,107.1,116.7,109.5L116.7,109.5z"/>
</svg>
