<?xml version="1.0" encoding="utf-8"?>
<!-- Generator: Adobe Illustrator 25.2.3, SVG Export Plug-In . SVG Version: 6.00 Build 0)  -->
<svg version="1.1" id="Calque_1" xmlns="http://www.w3.org/2000/svg" xmlns:xlink="http://www.w3.org/1999/xlink" x="0px" y="0px"
	 viewBox="0 0 158 210" style="enable-background:new 0 0 158 210;" xml:space="preserve">
<style type="text/css">
	.st0{fill:#E5383B;}
	.st1{fill:#FFFFFF;}
</style>
<path class="st0" d="M0,0v210l79-40l79,40V0H0z"/>
<path class="st1" d="M102.8,70c3.6-1.8,6.5-4.8,8.2-8.4c1.7-3.7,2.1-7.8,1.2-11.7s-3.1-7.4-6.3-9.9c-3.2-2.5-7.1-3.9-11.1-3.9h-32
	c-4,0-7.9,1.4-11.1,3.9c-3.2,2.5-5.4,6-6.3,9.9s-0.5,8.1,1.2,11.7c1.7,3.7,4.6,6.6,8.2,8.4c-3,1.5-5.5,3.8-7.2,6.6
	C45.9,79.4,45,82.7,45,86s0.9,6.6,2.7,9.4c1.7,2.8,4.2,5.1,7.2,6.6c-2.8,1.4-5.3,3.6-7,6.3c-1.7,2.7-2.7,5.8-2.9,9
	c-0.1,3.2,0.6,6.4,2,9.2c1.5,2.8,3.7,5.2,6.4,6.9s5.8,2.6,9,2.7c3.2,0.1,6.3-0.7,9.1-2.3c2.8-1.6,5.1-3.8,6.7-6.6
	c1.6-2.8,2.5-5.9,2.5-9.1V97c1.6,2.1,3.7,3.9,6.1,5.1s5,1.8,7.7,1.9c2.7,0,5.3-0.5,7.8-1.7c2.4-1.1,4.6-2.8,6.3-4.9
	c1.7-2.1,2.9-4.5,3.5-7.1s0.7-5.3,0.1-8c-0.6-2.6-1.7-5.1-3.4-7.2C107.3,72.9,105.2,71.2,102.8,70z M108.9,53.9
	c0,3.8-1.5,7.3-4.1,10c-2.6,2.7-6.2,4.1-10,4.2l0,0l0,0H80.7V39.8h14.1c3.7,0,7.3,1.5,10,4.1C107.4,46.6,108.9,50.2,108.9,53.9
	L108.9,53.9z M83.9,71.8c-1.2,0.9-2.2,2-3.2,3.2v-3.2H83.9z M48.8,53.9c0-3.8,1.5-7.3,4.1-10s6.2-4.1,10-4.1H77v28.3H62.9
	c-3.7,0-7.3-1.5-10-4.2C50.3,61.3,48.8,57.7,48.8,53.9L48.8,53.9z M62.9,132.2c-1.9,0-3.7-0.3-5.4-1s-3.3-1.7-4.6-3.1
	c-1.3-1.3-2.4-2.9-3.1-4.6c-0.7-1.7-1.1-3.6-1.1-5.4c0-1.9,0.4-3.7,1.1-5.4c0.7-1.7,1.8-3.3,3.1-4.6c1.3-1.3,2.9-2.4,4.6-3.1
	c1.7-0.7,3.6-1.1,5.4-1H77v14.2c0,3.8-1.5,7.3-4.1,10C70.2,130.7,66.6,132.2,62.9,132.2L62.9,132.2z M77,100.1H62.9
	c-3.7,0-7.3-1.5-10-4.1c-2.6-2.7-4.1-6.3-4.1-10c0-3.8,1.5-7.4,4.1-10s6.2-4.1,10-4.1l0,0H77V100.1z M94.8,100.2
	c-3.7,0-7.3-1.5-9.9-4.2c-2.6-2.6-4.1-6.2-4.1-10c0-3.7,1.5-7.3,4.1-10s6.2-4.2,9.9-4.2l0,0c3.7,0,7.3,1.5,10,4.1
	c2.6,2.7,4.1,6.3,4.1,10s-1.5,7.4-4.1,10C102.1,98.7,98.6,100.2,94.8,100.2L94.8,100.2z"/>
</svg>
