<?xml version="1.0" encoding="utf-8"?>
<!-- Generator: Adobe Illustrator 25.2.3, SVG Export Plug-In . SVG Version: 6.00 Build 0)  -->
<svg version="1.1" id="Calque_1" xmlns="http://www.w3.org/2000/svg" xmlns:xlink="http://www.w3.org/1999/xlink" x="0px" y="0px"
	 viewBox="0 0 158 210" style="enable-background:new 0 0 158 210;" xml:space="preserve">
<style type="text/css">
	.st0{fill:#E5383B;}
	.st1{fill:#FFFFFF;}
</style>
<path class="st0" d="M0,0v210l79-40l79,40V0H0z"/>
<path class="st1" d="M28,36v100h102.6V36H28z M32.3,40.3h94v91.5h-94C32.3,131.8,32.3,40.3,32.3,40.3z M63.6,92.6l-3.4,12.8
	c-0.1,0.4-0.2,0.4-0.6,0.4h-6.3c-0.4,0-0.5-0.1-0.4-0.6L65,62.7c0.2-0.8,0.3-1.5,0.4-3.6c0-0.3,0.2-0.4,0.4-0.4h8.9
	c0.3,0,0.4,0.1,0.5,0.4l13.6,46.1c0.1,0.3,0,0.6-0.3,0.6h-7c-0.4,0-0.6-0.1-0.6-0.4l-3.5-12.9L63.6,92.6L63.6,92.6z M75.5,85.7
	c-1.2-4.7-4-15.1-5.1-20.1h-0.1c-0.9,5-3.2,13.5-4.9,20.1H75.5z M94.7,61.9c0-2.8,1.9-4.4,4.4-4.4c2.6,0,4.4,1.8,4.4,4.4
	c0,2.8-1.8,4.4-4.5,4.4C96.5,66.3,94.7,64.8,94.7,61.9L94.7,61.9z M95.2,71.6c0-0.3,0.1-0.5,0.5-0.5h6.7c0.4,0,0.5,0.1,0.5,0.5v33.7
	c0,0.3-0.1,0.5-0.5,0.5h-6.6c-0.4,0-0.6-0.2-0.6-0.6V71.6L95.2,71.6z"/>
</svg>
