<?xml version="1.0" encoding="utf-8"?>
<!-- Generator: Adobe Illustrator 25.2.3, SVG Export Plug-In . SVG Version: 6.00 Build 0)  -->
<svg version="1.1" id="Calque_1" xmlns="http://www.w3.org/2000/svg" xmlns:xlink="http://www.w3.org/1999/xlink" x="0px" y="0px"
	 viewBox="0 0 158 210" style="enable-background:new 0 0 158 210;" xml:space="preserve">
<style type="text/css">
	.st0{fill:#E5383B;}
	.st1{fill:#FFFFFF;}
</style>
<path class="st0" d="M0,0v210l79-40l79,40V0H0z"/>
<path class="st1" d="M118.5,64.4c3.6,6.6,5.5,14,5.5,21.6c0,16.6-9,31.1-22.3,38.8l13.7-39.7c2.6-6.4,3.4-11.5,3.4-16.1
	C118.7,67.4,118.6,65.8,118.5,64.4L118.5,64.4z M85.2,64.9c2.7-0.1,5.1-0.4,5.1-0.4c2.4-0.3,2.2-3.9-0.3-3.7c0,0-7.3,0.6-12,0.6
	c-4.4,0-11.9-0.6-11.9-0.6c-2.4-0.1-2.7,3.6-0.3,3.7c0,0,2.2,0.2,4.7,0.4l7,19.2l-9.9,29.5L51.3,64.7c2.7-0.1,5.1-0.4,5.1-0.4
	c2.4-0.3,2.2-3.9-0.3-3.7c0,0-7.3,0.6-12,0.6c-0.8,0-1.8,0-2.9-0.1c8.1-12,22-20.1,37.7-20.1c11.7,0,22.3,4.5,30.4,11.8
	c-0.2,0-0.4,0-0.6,0c-4.4,0-7.6,3.8-7.6,8c0,3.7,2.1,6.9,4.4,10.5c1.7,3,3.7,6.9,3.7,12.4c0,3.8-1.5,8.3-3.4,14.5l-4.5,14.9
	L85.2,64.9L85.2,64.9z M79,130.9c-4.4,0-8.7-0.6-12.7-1.8l13.5-39.2l13.8,37.9c0.1,0.2,0.2,0.4,0.3,0.6
	C89.1,130.1,84.1,130.9,79,130.9L79,130.9z M34,86c0-6.5,1.4-12.7,3.9-18.3l21.4,58.8C44.4,119.2,34,103.8,34,86z M79,36
	c-27.6,0-50,22.4-50,50s22.4,50,50,50s50-22.4,50-50S106.6,36,79,36z"/>
</svg>
